<svg width="24" height="34" viewBox="0 0 24 34" fill="none" xmlns="http://www.w3.org/2000/svg">
<path fill-rule="evenodd" clip-rule="evenodd" d="M2 0C0.895431 0 0 0.895429 0 2V23.5139C0 24.1012 0.258141 24.6588 0.705941 25.0388L10.7059 33.5248C11.4524 34.1582 12.5476 34.1582 13.2941 33.5248L23.2941 25.0388C23.7419 24.6588 24 24.1012 24 23.5139V2C24 0.89543 23.1046 0 22 0H2ZM7 5.0916C5.89543 5.0916 5 5.98703 5 7.0916V17.3481C5 18.4527 5.89543 19.3481 7 19.3481H17C18.1046 19.3481 19 18.4527 19 17.3481V7.0916C19 5.98703 18.1046 5.0916 17 5.0916H7Z" fill="#B1C3C4"/>
</svg>
