<svg width="264" height="241" viewBox="0 0 264 241" fill="none" xmlns="http://www.w3.org/2000/svg">
<path fill-rule="evenodd" clip-rule="evenodd" d="M157.737 105.304C156.976 102.706 155.904 100.171 154.484 97.7126C149.506 89.0849 137.156 86.0893 125.386 87.8485C113.621 89.6064 102.679 96.0856 100.366 105.437C99.0426 110.783 99.7898 114.867 101.789 117.929C103.778 120.975 107.065 123.045 111.082 124.254C122.28 127.618 139.306 124.209 146.22 119.581C149.417 117.438 152.466 115.08 155.37 112.544C156.374 123.584 152.005 135.521 144.974 147.137C129.695 172.382 101.691 196.103 85.7123 206.403C84.8538 206.957 84.6096 208.1 85.1629 208.958C85.7163 209.817 86.8606 210.065 87.7191 209.512C104.014 199.008 132.556 174.799 148.137 149.052C156.186 135.754 160.744 122.035 158.693 109.514C179.682 89.4956 193.285 59.9787 205.004 35.0633C205.441 34.1427 205.042 33.0379 204.117 32.6023C203.193 32.1712 202.091 32.5645 201.656 33.4895C190.414 57.386 177.522 85.6787 157.737 105.304ZM154.684 108.211C154.005 105.242 152.89 102.345 151.277 99.5579C146.97 92.0901 136.121 89.9805 125.932 91.5038C119.688 92.4397 113.648 94.7765 109.384 98.3056C106.702 100.523 104.73 103.207 103.96 106.327C102.947 110.42 103.356 113.566 104.888 115.906C106.424 118.264 109.034 119.776 112.146 120.708C122.351 123.777 137.867 120.72 144.159 116.506C147.872 114.022 151.37 111.238 154.684 108.211Z" fill="#EBEFF8"/>
</svg>
