<svg width="62" height="47" viewBox="0 0 62 47" fill="none" xmlns="http://www.w3.org/2000/svg">
<path fill-rule="evenodd" clip-rule="evenodd" d="M37.7998 40.6675C42.39 42.1854 47.1833 43.3996 51.1238 46.3255C51.359 46.4989 51.6902 46.4512 51.8656 46.2167C52.039 45.9815 51.9913 45.6503 51.7568 45.4749C47.724 42.481 42.8294 41.2138 38.1324 39.6613C37.8551 39.5681 37.5542 39.7202 37.463 39.9981C37.3698 40.2754 37.5225 40.5743 37.7998 40.6675Z" fill="url(#paint0_linear_322_3601)"/>
<path fill-rule="evenodd" clip-rule="evenodd" d="M39.4256 33.8274C41.2703 32.9396 43.1456 32.4245 45.197 32.5104C45.4899 32.5229 45.7363 32.2955 45.7497 32.0037C45.7611 31.7112 45.5329 31.464 45.242 31.4521C43.0114 31.3584 40.9727 31.9082 38.9674 32.8728C38.703 32.9992 38.5912 33.3158 38.7191 33.5798C38.8451 33.8429 39.1633 33.9545 39.4256 33.8274Z" fill="url(#paint1_linear_322_3601)"/>
<path fill-rule="evenodd" clip-rule="evenodd" d="M39.8191 18.1288C41.169 16.0644 43.0095 14.688 45.3935 14.0149C45.6746 13.9354 45.839 13.6425 45.7585 13.3609C45.6801 13.08 45.3867 12.9159 45.1056 12.9954C42.467 13.741 40.4271 15.2631 38.9324 17.5489C38.7718 17.7932 38.8422 18.1225 39.086 18.2821C39.3317 18.4426 39.6605 18.3738 39.8191 18.1288Z" fill="url(#paint2_linear_322_3601)"/>
<path fill-rule="evenodd" clip-rule="evenodd" d="M17.9785 8.12736C17.4445 8.47057 16.9401 8.86199 16.4786 9.30167C16.2729 9.49735 15.8849 9.92818 15.7174 10.3479C15.5373 10.7945 15.5756 11.2292 15.915 11.5552C16.3659 11.9878 16.8002 12.0891 17.1784 12.0254C17.5424 11.9644 17.8836 11.7309 18.1656 11.3644C18.7043 10.6638 19.0274 9.44102 19.0812 8.70348C19.6325 8.39809 20.2122 8.14536 20.8109 7.94609C25.271 6.46213 30.3617 9.05777 33.321 14.2048C34.3566 16.0067 34.1846 19.0772 33.6095 22.2716C32.7147 27.2455 30.7612 32.5108 30.2387 34.0685C30.1105 34.4534 30.077 34.6948 30.0833 34.747C30.1097 35.0022 30.2601 35.1122 30.3709 35.1702C30.532 35.2524 30.6776 35.2613 30.8044 35.2378C30.976 35.205 31.1394 35.105 31.2604 34.9108C31.3264 34.8033 31.3839 34.6431 31.4326 34.4686C31.4651 34.3471 31.4807 34.2084 31.5312 34.1296C31.8572 33.6259 32.2116 33.145 32.5632 32.659C33.7404 31.024 35.0651 29.5592 36.4785 28.1236C40.9688 23.5617 45.4592 18.6643 51.373 15.9468C51.6382 15.8248 51.756 15.5103 51.6331 15.2443C51.5123 14.979 51.1978 14.8625 50.9305 14.9841C44.8986 17.755 40.3031 22.7283 35.7234 27.3803C34.5214 28.6016 33.3816 29.8441 32.3391 31.1892C33.2165 28.5157 34.3272 24.7835 34.8371 21.3374C35.2908 18.2726 35.2456 15.4284 34.2391 13.6767C30.9973 8.03828 25.3608 5.31475 20.4766 6.941C19.9541 7.11519 19.4426 7.32596 18.9509 7.57374C18.0031 3.13838 13.9654 0.248175 9.43576 0.854088C9.145 0.892562 8.94201 1.1595 8.98018 1.44906C9.02038 1.73924 9.28624 1.9428 9.577 1.90432C13.6587 1.35841 17.2793 4.05461 17.9785 8.12736ZM17.886 9.48763C17.6512 9.6696 17.426 9.8638 17.2086 10.0692C17.093 10.1798 16.8852 10.3967 16.7542 10.6311C16.7241 10.6862 16.6941 10.7776 16.6812 10.8202C16.8001 10.9316 16.8994 10.9982 17.0023 10.9805C17.1305 10.9593 17.2268 10.8468 17.3256 10.7185C17.574 10.3967 17.7653 9.9282 17.886 9.48763Z" fill="url(#paint3_linear_322_3601)"/>
<defs>
<linearGradient id="paint0_linear_322_3601" x1="37.1902" y1="40.8943" x2="52.548" y2="44.3038" gradientUnits="userSpaceOnUse">
<stop stop-color="#DABCFF"/>
<stop offset="1" stop-color="#BFB5FF"/>
</linearGradient>
<linearGradient id="paint1_linear_322_3601" x1="39.0705" y1="31.9422" x2="45.3151" y2="33.7046" gradientUnits="userSpaceOnUse">
<stop stop-color="#DABCFF"/>
<stop offset="1" stop-color="#BFB5FF"/>
</linearGradient>
<linearGradient id="paint2_linear_322_3601" x1="39.6128" y1="15.2381" x2="44.8646" y2="16.7774" gradientUnits="userSpaceOnUse">
<stop stop-color="#DABCFF"/>
<stop offset="1" stop-color="#BFB5FF"/>
</linearGradient>
<linearGradient id="paint3_linear_322_3601" x1="4.93342" y1="14.5911" x2="48.6856" y2="26.894" gradientUnits="userSpaceOnUse">
<stop stop-color="#DABCFF"/>
<stop offset="1" stop-color="#BFB5FF"/>
</linearGradient>
</defs>
</svg>
