<svg width="61" height="80" viewBox="0 0 61 80" fill="none" xmlns="http://www.w3.org/2000/svg">
<path fill-rule="evenodd" clip-rule="evenodd" d="M52.5326 30.1632C54.4865 24.2248 56.0474 18.0243 59.8234 12.9234C60.0472 12.6189 59.9849 12.1907 59.6813 11.9643C59.3768 11.7406 58.9486 11.8028 58.7222 12.1065C54.8586 17.3269 53.2294 23.6584 51.2308 29.7351C51.1108 30.0938 51.3081 30.4827 51.6676 30.6C52.0264 30.72 52.4126 30.522 52.5326 30.1632Z" fill="url(#paint0_linear_322_3594)"/>
<path fill-rule="evenodd" clip-rule="evenodd" d="M43.6848 28.0734C42.5333 25.6897 41.8636 23.2657 41.9708 20.613C41.9864 20.2342 41.6919 19.9161 41.3145 19.8993C40.9364 19.885 40.6171 20.1806 40.6023 20.5569C40.4854 23.4413 41.2002 26.0765 42.4513 28.6678C42.6153 29.0094 43.0249 29.1533 43.366 28.9874C43.706 28.824 43.8497 28.4123 43.6848 28.0734Z" fill="url(#paint1_linear_322_3594)"/>
<path fill-rule="evenodd" clip-rule="evenodd" d="M23.3853 27.5941C20.7133 25.8525 18.93 23.4753 18.055 20.3938C17.9517 20.0305 17.5727 19.8185 17.2087 19.9231C16.8455 20.025 16.6339 20.4047 16.7373 20.7681C17.7064 24.1786 19.6786 26.8134 22.6371 28.7418C22.9534 28.9491 23.379 28.8574 23.585 28.5419C23.792 28.2238 23.7024 27.7988 23.3853 27.5941Z" fill="url(#paint2_linear_322_3594)"/>
<path fill-rule="evenodd" clip-rule="evenodd" d="M10.4929 55.8554C10.9377 56.5453 11.4448 57.1968 12.0143 57.7928C12.2677 58.0584 12.8255 58.5592 13.3685 58.775C13.9464 59.0071 14.5084 58.9567 14.9293 58.5172C15.4879 57.9333 15.618 57.3715 15.5349 56.8827C15.4554 56.412 15.1528 55.9713 14.6784 55.6073C13.7714 54.9122 12.1896 54.4966 11.2358 54.4285C10.8398 53.7161 10.5119 52.9671 10.2531 52.1932C8.32571 46.4289 11.6724 39.8412 18.3223 36.0046C20.6503 34.6622 24.6211 34.8787 28.7528 35.6162C35.1862 36.7638 41.9983 39.2798 44.0136 39.9524C44.5116 40.1174 44.8238 40.1603 44.8912 40.1521C45.2212 40.1174 45.3631 39.9227 45.438 39.7794C45.544 39.571 45.5552 39.3826 45.5246 39.2187C45.4818 38.9968 45.3521 38.7858 45.1008 38.6296C44.9616 38.5446 44.7545 38.4705 44.5286 38.4079C44.3715 38.3661 44.1921 38.3462 44.0901 38.281C43.4382 37.8605 42.8157 37.4031 42.1866 36.9494C40.0701 35.4303 38.1735 33.7201 36.3144 31.8953C30.4069 26.0976 24.0656 20.3005 20.5403 12.6587C20.3821 12.3159 19.9751 12.1642 19.6315 12.3236C19.2886 12.4804 19.1386 12.8873 19.2963 13.2327C22.8908 21.0271 29.3305 26.96 35.3547 32.8731C36.9363 34.425 38.5451 35.8964 40.2864 37.2419C36.8277 36.1126 31.9995 34.6834 27.5424 34.0306C23.5785 33.4498 19.9008 33.5137 17.6377 34.8186C10.3529 39.0212 6.84188 46.3149 8.95409 52.6275C9.18033 53.3028 9.45385 53.9638 9.77518 54.5992C4.0417 55.8332 0.312135 61.0598 1.10428 66.9158C1.15459 67.2918 1.50015 67.5537 1.8745 67.5038C2.24965 67.4513 2.51236 67.1071 2.46205 66.7312C1.74835 61.4543 5.22785 56.7674 10.4929 55.8554ZM12.252 55.9725C12.4878 56.2757 12.7393 56.5665 13.0053 56.8474C13.1485 56.9966 13.4295 57.2648 13.7328 57.4339C13.8041 57.4726 13.9223 57.5112 13.9774 57.5279C14.1213 57.3739 14.2072 57.2453 14.1841 57.1124C14.1564 56.9466 14.0108 56.8223 13.8447 56.6948C13.4282 56.3741 12.822 56.1278 12.252 55.9725Z" fill="url(#paint3_linear_322_3594)"/>
<defs>
<linearGradient id="paint0_linear_322_3594" x1="52.827" y1="30.951" x2="57.2064" y2="11.0856" gradientUnits="userSpaceOnUse">
<stop stop-color="#DABCFF"/>
<stop offset="1" stop-color="#BFB5FF"/>
</linearGradient>
<linearGradient id="paint1_linear_322_3594" x1="41.2477" y1="28.5362" x2="43.5148" y2="20.4581" gradientUnits="userSpaceOnUse">
<stop stop-color="#DABCFF"/>
<stop offset="1" stop-color="#BFB5FF"/>
</linearGradient>
<linearGradient id="paint2_linear_322_3594" x1="19.6478" y1="27.8665" x2="21.6282" y2="21.0724" gradientUnits="userSpaceOnUse">
<stop stop-color="#DABCFF"/>
<stop offset="1" stop-color="#BFB5FF"/>
</linearGradient>
<linearGradient id="paint3_linear_322_3594" x1="18.876" y1="72.7115" x2="34.7011" y2="16.1127" gradientUnits="userSpaceOnUse">
<stop stop-color="#DABCFF"/>
<stop offset="1" stop-color="#BFB5FF"/>
</linearGradient>
</defs>
</svg>
