<svg width="32" height="32" viewBox="0 0 32 32" fill="none" xmlns="http://www.w3.org/2000/svg">
<path opacity="0.2" d="M29.3346 15.9998C29.3346 23.3532 23.3533 29.3332 16.0013 29.3332C8.6493 29.3332 2.66797 23.3532 2.66797 15.9998C2.66797 8.64784 8.6493 2.6665 16.0013 2.6665C23.3533 2.6665 29.3346 8.64784 29.3346 15.9998Z" fill="white"/>
<path d="M21.6281 14.0766C21.6281 14.3312 21.5308 14.5872 21.3361 14.7819L16.7094 19.4312C16.5214 19.6192 16.2668 19.7246 16.0001 19.7246C15.7348 19.7246 15.4801 19.6192 15.2921 19.4312L10.6628 14.7819C10.2734 14.3912 10.2734 13.7592 10.6654 13.3686C11.0574 12.9792 11.6908 12.9806 12.0801 13.3712L16.0001 17.3086L19.9201 13.3712C20.3094 12.9806 20.9414 12.9792 21.3334 13.3686C21.5308 13.5632 21.6281 13.8206 21.6281 14.0766Z" fill="white"/>
</svg>
