<svg width="32" height="32" viewBox="0 0 32 32" fill="none" xmlns="http://www.w3.org/2000/svg">
<path d="M32 16C32 24.824 24.8224 32 16 32C7.1776 32 0 24.824 0 16C0 7.1776 7.1776 0 16 0C24.8224 0 32 7.1776 32 16Z" fill="white"/>
<path d="M20.2 11.8069C19.94 11.5469 19.52 11.5469 19.26 11.8069L16 15.0602L12.74 11.8002C12.48 11.5402 12.06 11.5402 11.8 11.8002C11.54 12.0602 11.54 12.4802 11.8 12.7402L15.06 16.0002L11.8 19.2602C11.54 19.5202 11.54 19.9402 11.8 20.2002C12.06 20.4602 12.48 20.4602 12.74 20.2002L16 16.9402L19.26 20.2002C19.52 20.4602 19.94 20.4602 20.2 20.2002C20.46 19.9402 20.46 19.5202 20.2 19.2602L16.94 16.0002L20.2 12.7402C20.4533 12.4869 20.4533 12.0602 20.2 11.8069Z" fill="url(#paint0_linear_435_9293)"/>
<defs>
<linearGradient id="paint0_linear_435_9293" x1="11.605" y1="16.4711" x2="20.3974" y2="16.4206" gradientUnits="userSpaceOnUse">
<stop stop-color="#5479E6"/>
<stop offset="1" stop-color="#6B7AFF"/>
</linearGradient>
</defs>
</svg>
