<svg width="12" height="12" viewBox="0 0 12 12" fill="none" xmlns="http://www.w3.org/2000/svg">
<g clip-path="url(#clip0_962_1207)">
<path d="M6.85247 9.25666C6.91317 9.19618 6.96397 9.12967 7.00852 9.06036L11.6597 4.40918C12.1132 3.95523 12.1136 3.21932 11.6597 2.76515C11.2058 2.31164 10.4701 2.31121 10.0157 2.76515L6.01044 6.77082L1.98389 2.74492C1.52995 2.29119 0.794247 2.29097 0.340085 2.74492C0.113434 2.97222 -0.000429269 3.26947 1.21607e-06 3.56672C-0.000429269 3.86418 0.113434 4.16165 0.340515 4.38808L5.01193 9.06014C5.05648 9.12967 5.10771 9.19596 5.16884 9.25666C5.40087 9.48869 5.70609 9.6004 6.01044 9.59502C6.31436 9.60062 6.62044 9.48869 6.85247 9.25666Z" fill="#556C9C"/>
</g>
<defs>
<clipPath id="clip0_962_1207">
<rect width="12" height="12" fill="white"/>
</clipPath>
</defs>
</svg>
