<svg width="24" height="24" viewBox="0 0 24 24" fill="none" xmlns="http://www.w3.org/2000/svg">
<g clip-path="url(#clip0_314_19597)">
<path d="M21.414 8.65631H14.9625V3.711C14.9625 2.28497 13.8025 1.125 12.3766 1.125H10.8704C9.4444 1.125 8.28442 2.28497 8.28442 3.711V6.85327L5.63708 10.1625H2.586C1.15997 10.1625 0 11.3225 0 12.7485V20.2797C0 21.7057 1.15997 22.8657 2.586 22.8657H17.6484C18.9362 22.8657 20.4348 21.9838 21.0602 20.8581L22.9971 17.3718C23.5594 16.3596 24 14.6594 24 13.5015V11.2423C24 9.81628 22.84 8.65631 21.414 8.65631ZM1.40625 20.2797V12.7485C1.40625 12.098 1.93542 11.5688 2.586 11.5688H5.27197V21.4594H2.586C1.93542 21.4594 1.40625 20.9302 1.40625 20.2797ZM22.5938 13.5015C22.5938 14.4234 22.2156 15.8829 21.7679 16.6888L19.8309 20.1753C19.4509 20.8594 18.431 21.4594 17.6484 21.4594H6.67822V11.1123L9.5365 7.53918C9.63629 7.41449 9.69067 7.25958 9.69067 7.09991V3.711C9.69067 3.06042 10.2198 2.53125 10.8704 2.53125H12.3766C13.027 2.53125 13.5562 3.06042 13.5562 3.711V9.35944C13.5562 9.74762 13.871 10.0626 14.2593 10.0626H21.414C22.0646 10.0626 22.5938 10.5917 22.5938 11.2423V13.5015Z" fill="url(#paint0_linear_314_19597)"/>
</g>
<defs>
<linearGradient id="paint0_linear_314_19597" x1="-9.75037e-09" y1="13.16" x2="24.0064" y2="13.0078" gradientUnits="userSpaceOnUse">
<stop stop-color="#5479E6"/>
<stop offset="1" stop-color="#6B7AFF"/>
</linearGradient>
<clipPath id="clip0_314_19597">
<rect width="24" height="24" fill="white"/>
</clipPath>
</defs>
</svg>
