<svg width="24" height="24" viewBox="0 0 24 24" fill="none" xmlns="http://www.w3.org/2000/svg">
<path fill-rule="evenodd" clip-rule="evenodd" d="M3.52734 11.7666C3.52734 7.2166 7.21587 3.52808 11.7659 3.52808C16.3159 3.52808 20.0045 7.2166 20.0045 11.7666C20.0045 16.3167 16.3159 20.0052 11.7659 20.0052C7.21587 20.0052 3.52734 16.3167 3.52734 11.7666ZM11.7659 2.02808C6.38744 2.02808 2.02734 6.38818 2.02734 11.7666C2.02734 17.1451 6.38744 21.5052 11.7659 21.5052C14.0663 21.5052 16.1803 20.7076 17.8467 19.3739L21.012 22.531C21.3053 22.8235 21.7802 22.8229 22.0727 22.5296C22.3652 22.2363 22.3646 21.7615 22.0713 21.469L18.9432 18.349C20.5337 16.6157 21.5045 14.3045 21.5045 11.7666C21.5045 6.38818 17.1444 2.02808 11.7659 2.02808Z" fill="url(#paint0_linear_660_4096)"/>
<defs>
<linearGradient id="paint0_linear_660_4096" x1="2.02734" y1="13.4991" x2="22.2972" y2="13.3852" gradientUnits="userSpaceOnUse">
<stop stop-color="#5479E6"/>
<stop offset="1" stop-color="#6B7AFF"/>
</linearGradient>
</defs>
</svg>
