<svg width="32" height="32" viewBox="0 0 32 32" fill="none" xmlns="http://www.w3.org/2000/svg">
<g clip-path="url(#clip0_311_17420)">
<path d="M31.9163 12.2738C31.7056 11.6258 31.1309 11.1671 30.4537 11.1058L21.2162 10.2672L17.5655 1.72014C17.296 1.0922 16.6827 0.68692 16 0.68692C15.3174 0.68692 14.7039 1.0922 14.4361 1.72014L10.7854 10.2672L1.54643 11.1058C0.869174 11.1683 0.295679 11.627 0.083761 12.2738C-0.126936 12.9217 0.0676474 13.6325 0.579863 14.0817L7.56265 20.2046L5.50377 29.2726C5.35314 29.9394 5.61193 30.6288 6.16516 31.0287C6.46253 31.2448 6.8119 31.3527 7.16249 31.3527C7.46377 31.3527 7.76529 31.2726 8.03458 31.1115L16 26.3487L23.964 31.1115C24.5483 31.4606 25.2829 31.4286 25.8349 31.0287C26.3882 30.6288 26.6469 29.9394 26.4963 29.2726L24.4374 20.2046L31.4202 14.0817C31.9322 13.6325 32.127 12.9232 31.9163 12.2738Z" fill="url(#paint0_linear_311_17420)"/>
</g>
<defs>
<linearGradient id="paint0_linear_311_17420" x1="-1.30005e-08" y1="17.6626" x2="32.0087" y2="17.4707" gradientUnits="userSpaceOnUse">
<stop stop-color="#5479E6"/>
<stop offset="1" stop-color="#7094EA"/>
</linearGradient>
<clipPath id="clip0_311_17420">
<rect width="32" height="32" fill="white"/>
</clipPath>
</defs>
</svg>
