<svg width="15" height="13" viewBox="0 0 15 13" fill="none" xmlns="http://www.w3.org/2000/svg">
<path d="M0.226477 5.81444C1.46198 5.12969 2.81308 4.53608 4.12808 3.95838C4.44641 3.81854 4.76261 3.67963 5.07454 3.54061C7.82804 2.372 10.5925 1.22364 13.3848 0.15453C13.9281 -0.0276359 14.9043 -0.205784 15 0.60433C14.9629 1.41591 14.844 2.22414 14.7253 3.03138L14.7252 3.03192C14.6762 3.36505 14.6272 3.69801 14.584 4.03103C14.2662 6.15384 13.9064 8.27053 13.5467 10.3865L13.5418 10.4157C13.4783 10.7888 13.4149 11.1619 13.3517 11.535C13.206 12.3673 12.1698 12.7982 11.5067 12.2656C11.1155 11.9996 10.7235 11.7344 10.3315 11.4691L10.3271 11.4661C9.1239 10.6518 7.92001 9.83707 6.73462 9.00211C6.21933 8.47526 6.6972 7.7187 7.15736 7.34248C7.68573 6.81855 8.227 6.32632 8.7663 5.8359L8.76864 5.83377C9.568 5.10676 10.3631 4.38367 11.1053 3.56686C11.4195 2.80342 10.5701 3.35745 10.1924 3.60385C10.1667 3.62052 10.1433 3.63582 10.1225 3.64919C9.67918 3.95662 9.23849 4.26867 8.7977 4.58083L8.79728 4.58112C7.45195 5.53373 6.10563 6.48705 4.67898 7.31166C3.81045 7.7927 2.81297 7.47295 1.91835 7.18617L1.9182 7.18613C1.81619 7.15344 1.71555 7.12119 1.61655 7.09053C1.4981 7.04122 1.37218 6.99185 1.24487 6.94193L1.24319 6.94128C0.438769 6.62593 -0.418651 6.28972 0.226477 5.81444Z" fill="white"/>
</svg>
