<svg width="24" height="24" viewBox="0 0 24 24" fill="none" xmlns="http://www.w3.org/2000/svg">
<g clip-path="url(#clip0_314_19601)">
<path d="M21.414 15.3437H14.9625V20.289C14.9625 21.715 13.8025 22.875 12.3766 22.875H10.8704C9.4444 22.875 8.28442 21.715 8.28442 20.289V17.1467L5.63708 13.8375H2.586C1.15997 13.8375 0 12.6775 0 11.2515V3.72034C0 2.29431 1.15997 1.13434 2.586 1.13434H17.6484C18.9362 1.13434 20.4348 2.01617 21.0602 3.14191L22.9971 6.62823C23.5594 7.64044 24 9.34058 24 10.4985V12.7577C24 14.1837 22.84 15.3437 21.414 15.3437ZM1.40625 3.72034V11.2515C1.40625 11.902 1.93542 12.4312 2.586 12.4312H5.27197V2.54059H2.586C1.93542 2.54059 1.40625 3.06976 1.40625 3.72034ZM22.5938 10.4985C22.5938 9.5766 22.2156 8.11707 21.7679 7.31122L19.8309 3.82471C19.4509 3.14062 18.431 2.54059 17.6484 2.54059H6.67822V12.8877L9.5365 16.4608C9.63629 16.5855 9.69067 16.7404 9.69067 16.9001V20.289C9.69067 20.9396 10.2198 21.4688 10.8704 21.4688H12.3766C13.027 21.4688 13.5562 20.9396 13.5562 20.289V14.6406C13.5562 14.2524 13.871 13.9374 14.2593 13.9374H21.414C22.0646 13.9374 22.5938 13.4083 22.5938 12.7577V10.4985Z" fill="url(#paint0_linear_314_19601)"/>
</g>
<defs>
<linearGradient id="paint0_linear_314_19601" x1="-9.75037e-09" y1="10.84" x2="24.0064" y2="10.9922" gradientUnits="userSpaceOnUse">
<stop stop-color="#5479E6"/>
<stop offset="1" stop-color="#6B7AFF"/>
</linearGradient>
<clipPath id="clip0_314_19601">
<rect width="24" height="24" fill="white" transform="matrix(1 0 0 -1 0 24)"/>
</clipPath>
</defs>
</svg>
