<svg width="20" height="20" viewBox="0 0 20 20" fill="none" xmlns="http://www.w3.org/2000/svg">
<path d="M14.9954 6.71237C14.6876 6.38776 14.1743 6.37346 13.8492 6.6821L8.67301 11.591L6.2041 9.05615C5.8914 8.73533 5.37871 8.7283 5.05762 9.04104C4.73679 9.35346 4.73004 9.8667 5.04246 10.1875L8.06949 13.2954C8.22812 13.4583 8.43894 13.5405 8.65031 13.5405C8.85086 13.5405 9.0514 13.4664 9.20844 13.3181L14.9652 7.85862C15.29 7.55049 15.3038 7.03725 14.9954 6.71237Z" fill="#169649"/>
<path d="M14.9954 6.71237C14.6876 6.38776 14.1743 6.37346 13.8492 6.6821L8.67301 11.591L6.2041 9.05615C5.8914 8.73533 5.37871 8.7283 5.05762 9.04104C4.73679 9.35346 4.73004 9.8667 5.04246 10.1875L8.06949 13.2954C8.22812 13.4583 8.43894 13.5405 8.65031 13.5405C8.85086 13.5405 9.0514 13.4664 9.20844 13.3181L14.9652 7.85862C15.29 7.55049 15.3038 7.03725 14.9954 6.71237Z" fill="black" fill-opacity="0.2"/>
<path d="M10 0C4.48594 0 0 4.48594 0 10C0 15.5141 4.48594 20 10 20C15.5141 20 20 15.5141 20 10C20 4.48594 15.5141 0 10 0ZM10 18.3784C5.38027 18.3784 1.6216 14.62 1.6216 10C1.6216 5.38027 5.38023 1.6216 10 1.6216C14.62 1.6216 18.3784 5.38023 18.3784 10C18.3784 14.62 14.62 18.3784 10 18.3784Z" fill="#169649"/>
<path d="M10 0C4.48594 0 0 4.48594 0 10C0 15.5141 4.48594 20 10 20C15.5141 20 20 15.5141 20 10C20 4.48594 15.5141 0 10 0ZM10 18.3784C5.38027 18.3784 1.6216 14.62 1.6216 10C1.6216 5.38027 5.38023 1.6216 10 1.6216C14.62 1.6216 18.3784 5.38023 18.3784 10C18.3784 14.62 14.62 18.3784 10 18.3784Z" fill="black" fill-opacity="0.2"/>
</svg>
