<svg width="18" height="18" viewBox="0 0 18 18" fill="none" xmlns="http://www.w3.org/2000/svg">
<g clip-path="url(#clip0_660_2878)">
<path d="M17.602 4.44676L17.6245 4.59376C17.407 3.82201 16.8197 3.22651 16.0735 3.00976L16.0577 3.00601C14.6545 2.62501 9.00772 2.62501 9.00772 2.62501C9.00772 2.62501 3.37522 2.61751 1.95772 3.00601C1.19722 3.22651 0.609221 3.82201 0.395471 4.57801L0.391721 4.59376C-0.132529 7.33202 -0.136279 10.6223 0.414971 13.554L0.391721 13.4055C0.609221 14.1773 1.19647 14.7728 1.94272 14.9895L1.95847 14.9933C3.36022 15.375 9.00847 15.375 9.00847 15.375C9.00847 15.375 14.6402 15.375 16.0585 14.9933C16.8197 14.7728 17.4077 14.1773 17.6215 13.4213L17.6252 13.4055C17.8637 12.132 18.0002 10.6665 18.0002 9.16952C18.0002 9.11477 18.0002 9.05927 17.9995 9.00377C18.0002 8.95277 18.0002 8.89202 18.0002 8.83127C18.0002 7.33351 17.8637 5.86801 17.602 4.44676ZM7.20622 11.7383V6.26851L11.9057 9.00752L7.20622 11.7383Z" fill="white"/>
</g>
<defs>
<clipPath id="clip0_660_2878">
<rect width="18" height="18" fill="white"/>
</clipPath>
</defs>
</svg>
