<svg width="32" height="32" viewBox="0 0 32 32" fill="none" xmlns="http://www.w3.org/2000/svg">
<path d="M29.8367 9.18748C29.5506 8.9487 29.2033 8.79514 28.8341 8.74431C28.465 8.69347 28.0891 8.74741 27.7492 8.89998L21.4242 11.7125L17.7492 5.08748C17.5735 4.77817 17.319 4.52095 17.0116 4.34201C16.7042 4.16306 16.3549 4.06879 15.9992 4.06879C15.6435 4.06879 15.2941 4.16306 14.9867 4.34201C14.6793 4.52095 14.4248 4.77817 14.2492 5.08748L10.5742 11.7125L4.24916 8.89998C3.90854 8.74764 3.5321 8.69362 3.16239 8.74404C2.79268 8.79445 2.44445 8.94729 2.15705 9.18526C1.86966 9.42324 1.65457 9.73687 1.5361 10.0907C1.41763 10.4445 1.40051 10.8244 1.48666 11.1875L4.66166 24.725C4.72237 24.9871 4.83565 25.2341 4.99465 25.4511C5.15365 25.6681 5.35506 25.8506 5.58666 25.9875C5.90021 26.1752 6.25872 26.2745 6.62416 26.275C6.8018 26.2746 6.97852 26.2494 7.14916 26.2C12.9364 24.5999 19.0494 24.5999 24.8367 26.2C25.3651 26.3389 25.927 26.2625 26.3992 25.9875C26.6322 25.8523 26.8347 25.6704 26.9939 25.4531C27.1531 25.2358 27.2655 24.9879 27.3242 24.725L30.5117 11.1875C30.5968 10.8243 30.5788 10.4446 30.4595 10.0912C30.3402 9.73776 30.1245 9.42474 29.8367 9.18748Z" fill="url(#paint0_linear_322_3894)"/>
<defs>
<linearGradient id="paint0_linear_322_3894" x1="4.28471" y1="27.2024" x2="28.3373" y2="3.78305" gradientUnits="userSpaceOnUse">
<stop stop-color="#DD7BFF"/>
<stop offset="1" stop-color="#4D89FF"/>
</linearGradient>
</defs>
</svg>
