<svg width="32" height="32" viewBox="0 0 32 32" fill="none" xmlns="http://www.w3.org/2000/svg">
<path d="M25.3844 4.00001C24.6459 4.04063 23.9173 4.22894 23.2687 4.53909C21.5395 5.3637 20.0982 6.82463 19.0004 7.9237C18.8923 8.01018 18.8036 8.11849 18.7402 8.24155C18.6768 8.36462 18.64 8.49967 18.6323 8.6379C18.6247 8.77613 18.6462 8.91442 18.6956 9.04376C18.745 9.1731 18.821 9.29057 18.9189 9.38851C19.0168 9.48645 19.1342 9.56265 19.2634 9.61214C19.3927 9.66163 19.531 9.6833 19.6693 9.67574C19.8075 9.66817 19.9426 9.63153 20.0657 9.56822C20.1888 9.50492 20.2972 9.41635 20.3838 9.30832C21.4669 8.22524 22.833 6.95755 24.1155 6.34586C24.7567 6.04063 25.3364 5.90524 25.8841 5.96186C26.4318 6.01847 26.9955 6.22647 27.6158 6.84555C28.6607 7.8917 28.7198 8.77294 28.2681 10C27.8189 11.2271 26.6964 12.6892 25.3462 14.0382C24.0539 15.3305 23.089 16.5342 22.6533 17.808C22.4314 18.4406 22.3931 19.1231 22.543 19.7766C22.6928 20.43 23.0247 21.0277 23.5001 21.5003C24.5118 22.512 25.9752 22.7434 27.3069 22.2302C28.6398 21.7182 29.969 20.6462 31.4607 19.1532C31.5687 19.0667 31.6573 18.9583 31.7206 18.8352C31.7839 18.712 31.8205 18.577 31.8281 18.4387C31.8357 18.3005 31.814 18.1622 31.7645 18.0329C31.715 17.9036 31.6388 17.7862 31.5409 17.6884C31.443 17.5905 31.3255 17.5144 31.1961 17.465C31.0668 17.4157 30.9285 17.3941 30.7903 17.4018C30.6521 17.4095 30.517 17.4463 30.3939 17.5097C30.2709 17.5731 30.1626 17.6617 30.0761 17.7699C28.6742 19.1717 27.4669 20.0566 26.6152 20.384C25.7635 20.7126 25.425 20.656 24.8847 20.1157C24.3309 19.5619 24.2767 19.1902 24.5376 18.4234C24.7998 17.6566 25.5444 16.6092 26.7309 15.4228C28.177 13.9779 29.4865 12.4074 30.1155 10.6917C30.7432 8.97847 30.5192 6.98094 28.9992 5.46094C28.1204 4.58094 27.1235 4.1034 26.1155 4.00001C25.8722 3.9803 25.6277 3.9803 25.3844 4.00001ZM12.2299 7.69232C10.2699 7.80788 8.42159 8.64328 7.03978 10.0382L5.73024 11.3477L10.6927 16.3089L12.0379 14.9625C11.8414 14.5688 11.7729 14.1235 11.8419 13.689C11.911 13.2545 12.1142 12.8524 12.4232 12.5391L13.7696 11.1939C14.0827 10.885 14.4846 10.6819 14.9189 10.6128C15.3532 10.5437 15.7983 10.6122 16.1918 10.8086L17.6145 9.38586C16.0825 8.19244 14.1717 7.59119 12.2324 7.69232H12.2299ZM19.0767 10.8074L17.5764 12.3077C17.724 12.6844 17.7589 13.0958 17.677 13.4919C17.595 13.8881 17.3997 14.2519 17.1149 14.5391L15.7684 15.8843C15.4813 16.169 15.1177 16.3641 14.7218 16.446C14.3259 16.528 13.9147 16.4932 13.5382 16.3459L12.1155 17.7686L17.1149 22.7311L18.4232 21.4228C21.3229 18.5231 21.5272 13.9656 19.0767 10.8074ZM15.2687 11.808C15.0363 11.8143 14.8155 11.911 14.6533 12.0776L13.3069 13.4228C13.146 13.5872 13.0559 13.8081 13.0559 14.0382C13.0559 14.2682 13.146 14.4891 13.3069 14.6536L13.6539 14.9994C13.8154 15.1671 14.0366 15.2644 14.2693 15.2702C14.502 15.2639 14.7229 15.1667 14.8847 14.9994L16.2312 13.6542C16.3978 13.4922 16.4942 13.2712 16.4995 13.0388C16.4935 12.8063 16.3967 12.5854 16.2299 12.4234L15.8853 12.0776C15.8056 11.9942 15.7102 11.9274 15.6046 11.8809C15.499 11.8344 15.3853 11.8092 15.2699 11.8068L15.2687 11.808ZM4.53762 12.5391L2.69147 14.3459C-0.453146 17.4917 -0.453146 22.6228 2.69147 25.7686C3.43893 26.5163 4.32635 27.1093 5.30305 27.514C6.27975 27.9186 7.32658 28.1268 8.38378 28.1268C9.44097 28.1268 10.4878 27.9186 11.4645 27.514C12.4412 27.1093 13.3286 26.5163 14.0761 25.7686L15.9222 23.9225L4.53762 12.5391Z" fill="url(#paint0_linear_322_3901)"/>
<defs>
<linearGradient id="paint0_linear_322_3901" x1="3.41661" y1="29.1351" x2="29.5613" y2="3.81888" gradientUnits="userSpaceOnUse">
<stop stop-color="#DD7BFF"/>
<stop offset="1" stop-color="#4D89FF"/>
</linearGradient>
</defs>
</svg>
