<svg width="60" height="60" viewBox="0 0 60 60" fill="none" xmlns="http://www.w3.org/2000/svg">
<path d="M27.3418 34.423C27.3418 28.9234 34.0763 24.4651 42.3836 24.4651C50.6912 24.4651 57.4257 28.9234 57.4257 34.423C57.4257 39.1061 52.5418 43.0336 45.9624 44.0967V48.1056L40.0176 44.2581C32.8344 43.5065 27.3418 39.3897 27.3418 34.423Z" fill="#3A67E8"/>
<path d="M48.6549 27.1474C48.6549 18.7234 38.3395 11.8945 25.6146 11.8945C12.8898 11.8945 2.57422 18.7234 2.57422 27.1474C2.57422 34.3207 10.0548 40.3364 20.1329 41.9647V48.1054L29.2389 42.2119C40.2417 41.061 48.6549 34.755 48.6549 27.1474Z" fill="url(#paint0_linear_311_17656)"/>
<path d="M25.6141 29.8299C27.0955 29.8299 28.2965 28.629 28.2965 27.1475C28.2965 25.666 27.0955 24.4651 25.6141 24.4651C24.1326 24.4651 22.9316 25.666 22.9316 27.1475C22.9316 28.629 24.1326 29.8299 25.6141 29.8299Z" fill="white"/>
<path d="M14.5281 29.8299C16.0096 29.8299 17.2105 28.629 17.2105 27.1475C17.2105 25.666 16.0096 24.4651 14.5281 24.4651C13.0467 24.4651 11.8457 25.666 11.8457 27.1475C11.8457 28.629 13.0467 29.8299 14.5281 29.8299Z" fill="white"/>
<path d="M36.702 29.8299C38.1834 29.8299 39.3844 28.629 39.3844 27.1475C39.3844 25.666 38.1834 24.4651 36.702 24.4651C35.2205 24.4651 34.0195 25.666 34.0195 27.1475C34.0195 28.629 35.2205 29.8299 36.702 29.8299Z" fill="white"/>
<defs>
<linearGradient id="paint0_linear_311_17656" x1="7.08564" y1="49.6177" x2="46.2574" y2="12.6202" gradientUnits="userSpaceOnUse">
<stop stop-color="#DD7BFF"/>
<stop offset="1" stop-color="#4D89FF"/>
</linearGradient>
</defs>
</svg>
