<svg width="60" height="60" viewBox="0 0 60 60" fill="none" xmlns="http://www.w3.org/2000/svg">
<path d="M43.593 54.1031H16.407C14.1845 54.1031 12.3828 52.3014 12.3828 50.0789V31.9766C12.3828 29.754 14.1845 27.9524 16.407 27.9524H43.593C45.8155 27.9524 47.6171 29.7542 47.6171 31.9766V50.0789C47.6171 52.3014 45.8155 54.1031 43.593 54.1031Z" fill="url(#paint0_linear_311_17639)"/>
<path d="M44.2407 26.2849H39.5532V20.0604C39.5532 14.8353 35.3024 10.5845 30.0775 10.5845C24.8524 10.5845 20.6016 14.8353 20.6016 20.0604V26.2849H15.9141V20.0604C15.9141 12.2506 22.2677 5.89697 30.0775 5.89697C37.8872 5.89697 44.2407 12.2506 44.2407 20.0604V26.2849Z" fill="url(#paint1_linear_311_17639)"/>
<path d="M34.1016 38.4192C34.1016 36.154 32.2652 34.3176 30 34.3176C27.7348 34.3176 25.8984 36.154 25.8984 38.4192C25.8984 39.6848 26.4721 40.816 27.3729 41.5684L25.998 46.4886H33.968L32.5996 41.5916C33.5164 40.8393 34.1016 39.6977 34.1016 38.4192Z" fill="white"/>
<defs>
<linearGradient id="paint0_linear_311_17639" x1="15.8323" y1="55.1953" x2="44.1676" y2="26.8601" gradientUnits="userSpaceOnUse">
<stop stop-color="#DD7BFF"/>
<stop offset="1" stop-color="#4D89FF"/>
</linearGradient>
<linearGradient id="paint1_linear_311_17639" x1="15.9141" y1="17.1831" x2="44.2477" y2="16.957" gradientUnits="userSpaceOnUse">
<stop stop-color="#3D3AE8"/>
<stop offset="1" stop-color="#664FF1"/>
</linearGradient>
</defs>
</svg>
