<svg width="60" height="60" viewBox="0 0 60 60" fill="none" xmlns="http://www.w3.org/2000/svg">
<path d="M41.2155 58.5922L30.0004 52.2273L18.7852 58.5922V28.6453H41.2155V58.5922Z" fill="#3A67E8"/>
<path d="M48.9682 18.3775L47.2887 17.8849C46.9171 16.6035 46.407 15.3812 45.7754 14.2349L46.6156 12.6976C47.351 11.3513 46.7598 9.26162 45.203 7.70479C43.6461 6.14783 41.5564 5.55662 40.2102 6.29221L38.6728 7.13221C37.5266 6.50068 36.3042 5.99057 35.0229 5.61897L34.5302 3.93943C34.0984 2.46732 32.2027 1.40771 30.0009 1.40771C27.7991 1.40771 25.9035 2.46732 25.4716 3.93943L24.979 5.61897C23.6977 5.99057 22.4753 6.50068 21.3291 7.13221L19.7917 6.29221C18.4454 5.55662 16.3557 6.14783 14.7989 7.70479C13.2421 9.26174 12.6509 11.3514 13.3864 12.6976L14.2264 14.2349C13.5949 15.3812 13.0848 16.6035 12.7132 17.8849L11.0337 18.3775C9.56156 18.8094 8.50195 20.705 8.50195 22.9068C8.50195 25.1085 9.56156 27.0043 11.0337 27.436L12.7132 27.9287C13.0848 29.2101 13.5949 30.4322 14.2264 31.5786L13.3864 33.116C12.6509 34.4622 13.2421 36.5519 14.7989 38.1087V38.1088C16.3559 39.6657 18.4455 40.2569 19.7917 39.5214L21.3291 38.6813C22.4753 39.3128 23.6977 39.8228 24.979 40.1945L25.4716 41.8741C25.9035 43.3462 27.7991 44.4058 30.0009 44.4058C32.2027 44.4058 34.0984 43.3462 34.5301 41.8741L35.0228 40.1945C36.3042 39.8228 37.5265 39.3128 38.6727 38.6813L40.2101 39.5214C41.5563 40.2569 43.646 39.6657 45.2029 38.1088V38.1087C46.7597 36.5519 47.3509 34.4622 46.6154 33.116L45.7753 31.5786C46.4068 30.4324 46.917 29.2101 47.2886 27.9287L48.9681 27.436C50.4402 27.0042 51.4998 25.1085 51.4998 22.9068C51.4999 20.705 50.4403 18.8092 48.9682 18.3775Z" fill="url(#paint0_linear_311_17648)"/>
<path d="M44.5964 19.4213L43.3039 19.0422C43.018 18.0561 42.6254 17.1155 42.1393 16.2333L42.7858 15.0502C43.352 14.0143 42.8969 12.4061 41.6989 11.208C40.5007 10.0099 38.8926 9.55495 37.8566 10.121L36.6734 10.7675C35.7914 10.2815 34.8507 9.88893 33.8646 9.603L33.4855 8.31054C33.153 7.17745 31.6943 6.36206 29.9998 6.36206C28.3054 6.36206 26.8466 7.17745 26.5143 8.3103L26.1352 9.60276C25.1491 9.8887 24.2086 10.2813 23.3264 10.7673L22.1432 10.1207C21.1072 9.55472 19.499 10.0096 18.3009 11.2078C17.1028 12.4059 16.6479 14.0141 17.2139 15.05L17.8603 16.2331C17.3744 17.1152 16.9817 18.0558 16.6958 19.042L15.4033 19.4211C14.2705 19.7533 13.4551 21.2122 13.4551 22.9066C13.4551 24.601 14.2705 26.0599 15.4033 26.3921L16.6958 26.7712C16.9817 27.7573 17.3744 28.6979 17.8603 29.5801L17.2139 30.7632C16.6477 31.7992 17.1028 33.4073 18.3009 34.6055C19.499 35.8037 21.1072 36.2585 22.1432 35.6924L23.3264 35.0459C24.2084 35.5319 25.1491 35.9245 26.1352 36.2104L26.5143 37.503C26.8466 38.6358 28.3054 39.4512 29.9998 39.4512C31.6943 39.4512 33.153 38.6358 33.4854 37.503L33.8645 36.2104C34.8506 35.9246 35.7911 35.532 36.6733 35.0459L37.8565 35.6924C38.8925 36.2585 40.5006 35.8035 41.6988 34.6055C42.8969 33.4073 43.3518 31.7992 42.7857 30.7632L42.1392 29.5801C42.6252 28.698 43.0177 27.7573 43.3038 26.7712L44.5963 26.3921C45.7291 26.0599 46.5445 24.601 46.5445 22.9066C46.5446 21.2124 45.7292 19.7535 44.5964 19.4213Z" fill="white"/>
<path d="M30.0004 34.122C36.1943 34.122 41.2155 29.1008 41.2155 22.9068C41.2155 16.7129 36.1943 11.6917 30.0004 11.6917C23.8064 11.6917 18.7852 16.7129 18.7852 22.9068C18.7852 29.1008 23.8064 34.122 30.0004 34.122Z" fill="url(#paint1_linear_311_17648)"/>
<defs>
<linearGradient id="paint0_linear_311_17648" x1="12.7116" y1="46.2016" x2="57.3047" y2="13.1049" gradientUnits="userSpaceOnUse">
<stop stop-color="#DD7BFF"/>
<stop offset="1" stop-color="#4D89FF"/>
</linearGradient>
<linearGradient id="paint1_linear_311_17648" x1="20.9812" y1="35.0588" x2="44.2437" y2="17.7935" gradientUnits="userSpaceOnUse">
<stop stop-color="#DD7BFF"/>
<stop offset="1" stop-color="#4D89FF"/>
</linearGradient>
</defs>
</svg>
