<svg width="30" height="30" viewBox="0 0 30 30" fill="none" xmlns="http://www.w3.org/2000/svg">
<path fill-rule="evenodd" clip-rule="evenodd" d="M0 0H30V30H0V0Z" fill="white"/>
<path fill-rule="evenodd" clip-rule="evenodd" d="M1.3198 27.6566H1.23404C1.23404 27.6138 1.21256 27.5493 1.21256 27.5277C1.21256 27.5064 1.21256 27.4636 1.14813 27.4636H1.01926V27.6566H0.954826V27.2058H1.14813C1.23404 27.2058 1.29832 27.2275 1.29832 27.3131C1.29832 27.3775 1.27684 27.3991 1.25552 27.4203C1.277 27.4419 1.29832 27.4634 1.29832 27.5064V27.5921C1.29832 27.6138 1.29832 27.6138 1.3198 27.6138V27.6566ZM1.23404 27.3347C1.23404 27.2703 1.19108 27.2703 1.16961 27.2703H1.01926V27.3991H1.14813C1.19108 27.3991 1.23404 27.3775 1.23404 27.3347ZM1.59901 27.4205C1.59901 27.163 1.38439 26.9481 1.10517 26.9481C0.847592 26.9481 0.632812 27.163 0.632812 27.4205C0.632812 27.6995 0.847592 27.9144 1.10517 27.9144C1.38423 27.9143 1.59901 27.6995 1.59901 27.4205ZM1.53458 27.4205C1.53458 27.6567 1.34143 27.8284 1.10517 27.8284C0.868915 27.8284 0.697246 27.6566 0.697246 27.4205C0.697246 27.2058 0.86907 27.0125 1.10517 27.0125C1.34127 27.0125 1.53458 27.2058 1.53458 27.4205ZM27.9858 18.7466C27.9858 19.3908 27.5779 19.691 26.8478 19.691H25.4525V19.0469H26.8478C26.9766 19.0469 27.084 19.0255 27.1271 18.9827C27.1699 18.9396 27.2129 18.8752 27.2129 18.7894C27.2129 18.7034 27.1701 18.6176 27.1271 18.5748C27.084 18.5317 26.9983 18.5104 26.8694 18.5104C26.2041 18.4888 25.3666 18.5317 25.3666 17.5871C25.3666 17.1576 25.6456 16.6852 26.397 16.6852H27.8354V17.3294H26.5043C26.3757 17.3294 26.2896 17.3294 26.2252 17.3722C26.1608 17.4366 26.118 17.5011 26.118 17.6085C26.118 17.7159 26.1824 17.7803 26.2682 17.8234C26.3542 17.8447 26.4402 17.8662 26.5475 17.8662H26.9338C27.3418 17.8662 27.5995 17.952 27.7713 18.1025C27.8999 18.2526 27.9858 18.4461 27.9858 18.7466ZM24.9585 18.1025C24.7867 17.952 24.5289 17.8662 24.121 17.8662H23.7347C23.6275 17.8662 23.5414 17.8446 23.4556 17.8234C23.3696 17.7803 23.3055 17.7159 23.3055 17.6085C23.3055 17.5011 23.3268 17.4366 23.4127 17.3722C23.4771 17.3294 23.5629 17.3294 23.6917 17.3294H25.0229V16.6852H23.5845C22.8115 16.6852 22.5537 17.1576 22.5537 17.5871C22.5537 18.5316 23.3912 18.4888 24.0569 18.5104C24.1854 18.5104 24.2715 18.5317 24.3143 18.5748C24.3571 18.6176 24.4004 18.7034 24.4004 18.7894C24.4004 18.8752 24.3573 18.9396 24.3143 18.9827C24.2499 19.0255 24.1641 19.0469 24.0352 19.0469H22.6396V19.691H24.0352C24.765 19.691 25.1731 19.3907 25.1731 18.7466C25.1731 18.4461 25.0874 18.2526 24.9585 18.1025ZM22.2102 19.0687H20.5144V18.4674H22.1674V17.8665H20.5144V17.3081H22.2102V16.6855H19.8058V19.6912H22.2102V19.0687ZM19.0327 16.8359C18.7965 16.707 18.5174 16.6854 18.1525 16.6854H16.4994V19.691H17.2292V18.5961H18.0023C18.2597 18.5961 18.4102 18.6178 18.5176 18.725C18.6465 18.8752 18.6465 19.1329 18.6465 19.3262V19.691H19.3548V19.1113C19.3548 18.8322 19.3334 18.7034 19.2475 18.5532C19.1831 18.4671 19.0545 18.3599 18.8827 18.2955C19.0757 18.2313 19.398 17.9736 19.398 17.5011C19.3979 17.1577 19.269 16.9644 19.0327 16.8359ZM14.9535 16.6854H12.6561L11.7329 17.6731L10.8526 16.6854H7.95416V19.691H10.8098L11.733 18.7034L12.6133 19.691H14.0089V18.6822H14.9107C15.5332 18.6822 16.1561 18.5104 16.1561 17.6731C16.1559 16.8572 15.5118 16.6854 14.9535 16.6854ZM18.453 17.9308C18.3458 17.9736 18.2384 17.9736 18.1095 17.9736L17.2292 17.9952V17.3079H18.1095C18.2384 17.3079 18.3672 17.3079 18.453 17.3724C18.5391 17.4155 18.6032 17.5012 18.6032 17.6301C18.6032 17.759 18.5391 17.8664 18.453 17.9308ZM14.9535 18.081H14.0088V17.3079H14.9535C15.2112 17.3079 15.3829 17.4155 15.3829 17.6731C15.3829 17.9308 15.2111 18.081 14.9535 18.081ZM12.1838 18.1882L13.3001 17.0076V19.4336L12.1838 18.1882ZM10.4447 19.0687H8.66262V18.4674H10.2514V17.8665H8.66262V17.3081H10.4661L11.2605 18.1884L10.4447 19.0687ZM25.989 14.5169H24.9585L23.6058 12.2625V14.5169H22.1461L21.8667 13.8512H20.3639L20.0849 14.5169H19.2474C18.9039 14.5169 18.453 14.431 18.1956 14.1732C17.9593 13.9157 17.8304 13.5722 17.8304 13.0354C17.8304 12.5845 17.8949 12.1766 18.2167 11.8546C18.4314 11.6183 18.818 11.5111 19.3116 11.5111H19.9986V12.1553H19.3116C19.0542 12.1553 18.9037 12.1982 18.7535 12.3271C18.6247 12.4559 18.5602 12.692 18.5602 13.0141C18.5602 13.3361 18.6247 13.5723 18.7535 13.7227C18.8608 13.8299 19.0542 13.8729 19.2472 13.8729H19.5694L20.5999 11.5112H21.6734L22.8757 14.3452V11.5111H23.9923L25.259 13.5937V11.5111H25.9888V14.5169H25.989ZM17.4655 11.5111H16.7357V14.5169H17.4655V11.5111ZM15.941 11.6399C15.7047 11.5111 15.4473 11.5111 15.0824 11.5111H13.429V14.5169H14.1375V13.4218H14.9104C15.1681 13.4218 15.3399 13.4433 15.4472 13.5507C15.576 13.701 15.5544 13.9588 15.5544 14.1304V14.5169H16.2842V13.9157C16.2842 13.6581 16.2629 13.5292 16.1556 13.3789C16.0912 13.293 15.9623 13.1856 15.8121 13.1213C16.0051 13.0354 16.3275 12.7993 16.3275 12.3269C16.3276 11.9834 16.1771 11.7901 15.941 11.6399ZM12.9137 13.8943H11.239V13.2931H12.8922V12.6706H11.239V12.1338H12.9137V11.5112H10.5091V14.517H12.9137V13.8943ZM9.97231 11.5111H8.79149L7.9112 13.5507L6.96648 11.5111H5.80714V14.3451L4.58336 11.5111H3.50993L2.22172 14.5169H2.99461L3.27367 13.8512H4.7765L5.05556 14.5169H6.5156V12.1553L7.56755 14.5169H8.1901L9.24221 12.1553V14.5169H9.97215V11.5111H9.97231ZM21.6093 13.2072L21.1153 12.0264L20.6216 13.2072H21.6093ZM15.3829 12.735C15.2757 12.7994 15.1683 12.7994 15.0179 12.7994H14.1375V12.1339H15.0178C15.1466 12.1339 15.2967 12.1339 15.3827 12.1769C15.4685 12.2413 15.5116 12.3272 15.5116 12.4559C15.5116 12.5847 15.4686 12.6919 15.3829 12.735ZM3.53125 13.2072L4.02509 12.0264L4.51892 13.2072H3.53125ZM27.8141 2.08569H2.20008V12.9067L3.08037 10.91H4.94817L5.20591 11.4038V10.91H7.39588L7.88972 11.9834L8.36208 10.91H15.3399C15.6618 10.91 15.9408 10.9744 16.1558 11.1461V10.91H18.0665V11.1461C18.3884 10.9743 18.7963 10.91 19.2688 10.91H22.0384L22.2961 11.4038V10.91H24.3358L24.6365 11.4038V10.91H26.633V15.1181H24.615L24.2287 14.4741V15.1181H21.7166L21.4375 14.4311H20.8146L20.5356 15.1181H19.226C18.7107 15.1181 18.3241 14.9893 18.0667 14.8605V15.1181H14.9535V14.1519C14.9535 14.0231 14.932 14.0016 14.8461 14.0016H14.7389V15.118H8.72705V14.5812L8.51243 15.118H7.24569L7.03107 14.6026V15.118H4.60484L4.34726 14.431H3.72455L3.44549 15.118H2.20008V27.8069H27.8141V20.099C27.5351 20.2278 27.1485 20.2923 26.762 20.2923H24.8941V20.0345C24.6794 20.2065 24.2928 20.2923 23.928 20.2923H18.0451V19.3262C18.0451 19.1974 18.0237 19.1974 17.9162 19.1974H17.809V20.2923H15.8766V19.1544C15.5547 19.3046 15.1896 19.3046 14.8676 19.3046H14.6528V20.2923H12.2911L11.733 19.6481L11.1105 20.2923H7.30997V16.0843H11.1746L11.7329 16.7282L12.3341 16.0843H14.932C15.2324 16.0843 15.7264 16.1271 15.941 16.3417V16.0843H18.2597C18.4959 16.0843 18.947 16.1271 19.2474 16.3417V16.0843H22.747V16.3419C22.9403 16.1701 23.3055 16.0845 23.6273 16.0845H25.581V16.3419C25.796 16.1917 26.0963 16.0845 26.483 16.0845H27.8141V2.08569Z" fill="#0077A6"/>
</svg>
