<svg width="53" height="12" viewBox="0 0 53 12" fill="none" xmlns="http://www.w3.org/2000/svg">
<path d="M9.32952 0H6.72022C6.72022 2.1721 5.73734 4.1543 4.02901 5.45993L2.99933 6.24331L7.00104 11.7745H10.289L6.60321 6.68248C8.34664 4.92581 9.32952 2.55193 9.32952 0ZM0.00390625 0H2.67171V11.7745H0.00390625V0ZM11.0612 0H13.5769V11.7745H11.0612V0ZM35.6448 3.40652C34.6853 3.40652 33.7727 3.70326 33.1642 4.54599V3.63204H30.7773V11.7745H33.1993V7.50147C33.1993 6.26705 34.0184 5.66171 35.0013 5.66171C36.0544 5.66171 36.6628 6.30266 36.6628 7.4896V11.7863H39.0615V6.5994C39.0615 4.70029 37.5755 3.40652 35.6448 3.40652ZM21.1825 3.63204V4.1543C20.5039 3.67952 19.6848 3.40652 18.7955 3.40652C16.4554 3.40652 14.5598 5.32937 14.5598 7.70325C14.5598 10.0771 16.4554 12 18.7955 12C19.6848 12 20.5039 11.727 21.1825 11.2522V11.7745H23.5812V3.63204H21.1825ZM18.9945 9.79227C17.7893 9.79227 16.8181 8.85459 16.8181 7.70325C16.8181 6.55192 17.7893 5.61424 18.9945 5.61424C20.1996 5.61424 21.1708 6.55192 21.1708 7.70325C21.1708 8.85459 20.1996 9.79227 18.9945 9.79227ZM27.3021 4.68842V3.63204H24.8449V11.7745H27.3138V7.97625C27.3138 6.69435 28.6828 6.00593 29.6306 6.00593H29.654V3.63204C28.6828 3.63204 27.7818 4.05934 27.3021 4.68842ZM46.5266 3.63204V4.1543C45.848 3.67952 45.0289 3.40652 44.1397 3.40652C41.7995 3.40652 39.9039 5.32937 39.9039 7.70325C39.9039 10.0771 41.7995 12 44.1397 12C45.0289 12 45.848 11.727 46.5266 11.2522V11.7745H48.9253V3.63204H46.5266ZM44.3386 9.79227C43.1334 9.79227 42.1622 8.85459 42.1622 7.70325C42.1622 6.55192 43.1334 5.61424 44.3386 5.61424C45.5438 5.61424 46.5149 6.55192 46.5149 7.70325C46.5266 8.85459 45.5438 9.79227 44.3386 9.79227ZM50.7858 3.86943C50.7858 3.75074 50.7039 3.67952 50.5752 3.67952H50.3528V4.29673H50.4581V4.07121H50.5752L50.6688 4.29673H50.7858L50.6805 4.04747C50.7507 4.01186 50.7858 3.95252 50.7858 3.86943ZM50.5752 3.96439H50.4581V3.77448H50.5752C50.6454 3.77448 50.6805 3.81008 50.6805 3.86943C50.6805 3.92878 50.6571 3.96439 50.5752 3.96439Z" fill="black"/>
<path d="M50.5382 3.41846C50.2223 3.41846 49.9648 3.67958 49.9648 4.00006C49.9765 4.32053 50.2223 4.58166 50.5382 4.58166C50.8541 4.58166 51.1116 4.32053 51.1116 4.00006C51.1116 3.67958 50.8541 3.41846 50.5382 3.41846ZM50.5382 4.47483C50.2808 4.47483 50.0819 4.26118 50.0819 4.00006C50.0819 3.73893 50.2925 3.52528 50.5382 3.52528C50.7956 3.52528 50.9945 3.73893 50.9945 4.00006C50.9945 4.26118 50.7839 4.47483 50.5382 4.47483ZM51.486 8.89024C50.6552 8.89024 49.9765 9.57866 49.9765 10.4214C49.9765 11.2641 50.6552 11.9525 51.486 11.9525C52.3168 11.9525 52.9954 11.2641 52.9954 10.4214C52.9954 9.5668 52.3168 8.89024 51.486 8.89024Z" fill="black"/>
</svg>
