<svg width="34" height="26" viewBox="0 0 34 26" fill="none" xmlns="http://www.w3.org/2000/svg">
<g clip-path="url(#clip0_314_19276)">
<path d="M33.6787 16.7316V16.3306H33.5724L33.4495 16.6058L33.3273 16.3306H33.2203V16.7316H33.2958V16.4295L33.4107 16.6902H33.4889L33.6039 16.4288V16.7316H33.6787ZM33.0044 16.7316V16.3992H33.1404V16.3324H32.793V16.3992H32.929V16.7316H33.0038H33.0044Z" fill="#0099DF"/>
<path d="M21.6019 18.452H12.4062V2.2085H21.6019V18.452Z" fill="#6C6BBD"/>
<path d="M12.9899 10.3305C12.9899 7.03539 14.5595 4.10019 17.0037 2.20868C15.1535 0.774707 12.8651 -0.00350927 10.5089 1.18967e-05C4.70475 1.18967e-05 0 4.62504 0 10.3305C0 16.036 4.70475 20.6612 10.5087 20.6612C12.865 20.6646 15.1535 19.8864 17.0037 18.4523C14.5595 16.5608 12.9899 13.6256 12.9899 10.3305Z" fill="#EB001B"/>
<path d="M34.0083 10.3305C34.0083 16.036 29.3036 20.6612 23.4996 20.6612C21.1431 20.6646 18.8545 19.8863 17.0039 18.4524C19.4483 16.5608 21.0186 13.6256 21.0186 10.3305C21.0186 7.0354 19.4483 4.10037 17.0041 2.20885C18.8546 0.774906 21.1432 -0.00335163 23.4996 1.08501e-05C29.3036 1.08501e-05 34.0085 4.62505 34.0085 10.3305" fill="#0099DF"/>
<path d="M24.7138 23.0424C24.8361 23.0424 25.0118 23.0655 25.1461 23.1173L24.9591 23.6796C24.8385 23.6321 24.7095 23.6087 24.5795 23.6105C24.1826 23.6105 23.9845 23.8627 23.9845 24.316V25.8543H23.3771V23.1109H23.9786V23.4434C24.1363 23.2023 24.3641 23.0414 24.7143 23.0414L24.7138 23.0424ZM22.4703 23.6555H21.4781V24.8948C21.4781 25.17 21.577 25.3538 21.881 25.3538C22.0387 25.3538 22.2371 25.302 22.4175 25.1988L22.5926 25.7091C22.4001 25.8411 22.0969 25.9219 21.8342 25.9219C21.1158 25.9219 20.8652 25.543 20.8652 24.9058V23.6553H20.2984V23.1109H20.865V22.2788H21.477V23.1109H22.4693V23.656L22.4703 23.6555ZM14.6998 24.2403C14.7646 23.8443 15.0092 23.5743 15.4415 23.5743C15.8325 23.5743 16.0836 23.8154 16.1477 24.2403H14.6993H14.6998ZM16.7786 24.4814C16.7726 23.6262 16.2346 23.0411 15.4526 23.0411C14.6354 23.0411 14.0633 23.6259 14.0633 24.4814C14.0633 25.353 14.6583 25.9211 15.4939 25.9211C15.9141 25.9211 16.299 25.818 16.6378 25.5368L16.3398 25.0948C16.1066 25.2786 15.8086 25.3819 15.5286 25.3819C15.1376 25.3819 14.7816 25.2039 14.694 24.7107H16.7662C16.7721 24.6358 16.7782 24.5616 16.7782 24.4814H16.7786ZM19.4457 23.8111C19.2766 23.7073 18.9325 23.5753 18.5763 23.5753C18.2436 23.5753 18.0451 23.6961 18.0451 23.8971C18.0451 24.0809 18.2549 24.1322 18.5175 24.1665L18.8034 24.2066C19.4109 24.2933 19.7784 24.5454 19.7784 25.0275C19.7784 25.5497 19.3114 25.9226 18.5061 25.9226C18.0503 25.9226 17.6301 25.8077 17.2974 25.5665L17.5834 25.1015C17.7874 25.2566 18.0918 25.3886 18.5121 25.3886C18.9264 25.3886 19.1482 25.2684 19.1482 25.0556C19.1482 24.9012 18.9904 24.8144 18.6578 24.7692L18.3718 24.7291C17.7471 24.6423 17.4083 24.3671 17.4083 23.92C17.4083 23.3749 17.864 23.0419 18.5702 23.0419C19.0139 23.0419 19.4168 23.1398 19.7082 23.329L19.4457 23.8111ZM26.9328 23.6087C26.8136 23.6078 26.6954 23.6296 26.5847 23.673C26.4806 23.7145 26.3861 23.7762 26.3067 23.8543C26.2269 23.9343 26.1642 24.0292 26.1223 24.1334C26.0332 24.364 26.0332 24.6186 26.1223 24.8492C26.1642 24.9534 26.2269 25.0484 26.3067 25.1284C26.386 25.2066 26.4806 25.2683 26.5847 25.3097C26.8088 25.3957 27.0576 25.3957 27.2817 25.3097C27.3863 25.2684 27.4813 25.2068 27.561 25.1284C27.6418 25.0487 27.7054 24.9538 27.748 24.8494C27.8371 24.6188 27.8371 24.3641 27.748 24.1335C27.7054 24.029 27.6418 23.9341 27.561 23.8543C27.4813 23.776 27.3863 23.7143 27.2817 23.673C27.171 23.6296 27.0527 23.6077 26.9335 23.6087H26.9328ZM26.9335 23.0419C27.1395 23.0398 27.3438 23.0775 27.535 23.1529C27.7133 23.2226 27.8758 23.3261 28.0134 23.4577C28.1488 23.5881 28.2563 23.744 28.3294 23.916C28.4817 24.2849 28.4817 24.6977 28.3294 25.0666C28.2563 25.2388 28.1488 25.3949 28.0134 25.5256C27.8757 25.6569 27.7131 25.7604 27.535 25.8304C27.148 25.9775 26.7192 25.9775 26.3322 25.8304C26.1547 25.7605 25.993 25.657 25.8562 25.5256C25.7216 25.3945 25.6147 25.2385 25.5416 25.0666C25.3892 24.6977 25.3892 24.2849 25.5416 23.916C25.6148 23.7432 25.7225 23.5866 25.8584 23.4556C25.9943 23.3245 26.1556 23.2215 26.3327 23.1529C26.5239 23.0775 26.7283 23.0398 26.9342 23.0419H26.9335ZM11.1524 24.4823C11.1524 24.0002 11.4737 23.6042 11.999 23.6042C12.5009 23.6042 12.8397 23.9832 12.8397 24.4823C12.8397 24.9814 12.5009 25.3597 11.9992 25.3597C11.4739 25.3597 11.1526 24.9643 11.1526 24.4823H11.1524ZM13.4117 24.4823V23.1109H12.805V23.4434C12.6119 23.1965 12.3205 23.0414 11.9236 23.0414C11.1416 23.0414 10.5284 23.643 10.5284 24.4818C10.5284 25.3206 11.1404 25.9221 11.9236 25.9221C12.3205 25.9221 12.6119 25.767 12.805 25.5201V25.8531H13.4117V24.4818V24.4823ZM9.99116 25.8536V24.1325C9.99116 23.4842 9.57092 23.0481 8.89398 23.0423C8.53783 23.0364 8.16961 23.1454 7.91308 23.5302C7.72064 23.2261 7.41652 23.0423 6.99033 23.0423C6.693 23.0423 6.40094 23.1283 6.17314 23.4495V23.1109H5.56641V25.8536H6.17841V24.3331C6.17841 23.8568 6.44701 23.604 6.86129 23.604C7.26419 23.604 7.4687 23.8622 7.4687 24.3272V25.8536H8.0807V24.3331C8.0807 23.8568 8.36137 23.604 8.76359 23.604C9.17856 23.604 9.37695 23.8622 9.37695 24.3272V25.8536H9.98895H9.99116ZM29.1257 25.6472V25.7141H29.1894C29.2013 25.7145 29.2131 25.7115 29.2234 25.7056C29.2277 25.7028 29.2313 25.699 29.2336 25.6945C29.236 25.6901 29.2371 25.685 29.2368 25.68C29.2371 25.675 29.236 25.6701 29.2336 25.6657C29.2313 25.6613 29.2277 25.6577 29.2234 25.6551C29.2133 25.6488 29.2014 25.6459 29.1894 25.6466L29.1257 25.6472ZM29.1898 25.6C29.2169 25.5983 29.2439 25.606 29.2659 25.6217C29.2748 25.6288 29.2818 25.6379 29.2864 25.6481C29.2911 25.6584 29.2932 25.6696 29.2926 25.6808C29.293 25.6905 29.2913 25.7001 29.2876 25.709C29.2839 25.7179 29.2783 25.726 29.2712 25.7326C29.2541 25.7471 29.2328 25.7558 29.2103 25.7575L29.2953 25.8528H29.2299L29.1517 25.7582H29.1264V25.8528H29.0704V25.6H29.1898ZM29.1728 25.9395C29.2015 25.9398 29.2299 25.9341 29.2562 25.9228C29.2816 25.912 29.3047 25.8967 29.3242 25.8775C29.3438 25.8583 29.3595 25.8356 29.3703 25.8107C29.3814 25.7844 29.3871 25.7563 29.3871 25.7279C29.3871 25.6995 29.3814 25.6713 29.3703 25.6451C29.3593 25.6202 29.3437 25.5975 29.3242 25.5782C29.3048 25.5591 29.2817 25.5439 29.2562 25.5336C29.2299 25.5223 29.2015 25.5166 29.1728 25.5169C29.1436 25.5167 29.1146 25.5223 29.0878 25.5336C29.0617 25.5437 29.0381 25.5589 29.0182 25.5782C28.9882 25.6086 28.9679 25.6469 28.9598 25.6885C28.9517 25.7301 28.9563 25.7731 28.9728 25.8122C28.9832 25.8372 28.9986 25.86 29.0182 25.879C29.0382 25.8984 29.0618 25.9137 29.0878 25.9243C29.1146 25.9356 29.1436 25.9412 29.1728 25.941V25.9395ZM29.1728 25.4564C29.2104 25.4561 29.2478 25.4635 29.2824 25.4781C29.3161 25.4916 29.3468 25.5115 29.3727 25.5366C29.3984 25.5613 29.4188 25.5908 29.4329 25.6233C29.4474 25.6568 29.4549 25.6928 29.4549 25.7291C29.4549 25.7655 29.4474 25.8015 29.4329 25.8349C29.4186 25.8671 29.3982 25.8964 29.3727 25.9209C29.3467 25.9461 29.316 25.9662 29.2824 25.9801C29.2478 25.9947 29.2104 26.0021 29.1728 26.0018C29.1354 26.002 29.0983 25.995 29.0637 25.9812C29.0291 25.9673 28.9976 25.9469 28.971 25.9211C28.9454 25.8965 28.925 25.8673 28.9108 25.8351C28.8963 25.8017 28.8888 25.7657 28.8888 25.7294C28.8888 25.693 28.8963 25.6571 28.9108 25.6237C28.9248 25.5912 28.9453 25.5617 28.971 25.537C28.9967 25.5117 29.0274 25.4918 29.0612 25.4785C29.0965 25.4639 29.1345 25.4565 29.1728 25.4568" fill="#231F20"/>
</g>
<defs>
<clipPath id="clip0_314_19276">
<rect width="34" height="26" fill="white"/>
</clipPath>
</defs>
</svg>
