<svg width="30" height="30" viewBox="0 0 30 30" fill="none" xmlns="http://www.w3.org/2000/svg">
<path fill-rule="evenodd" clip-rule="evenodd" d="M0 0H30V30H0V0Z" fill="white"/>
<path fill-rule="evenodd" clip-rule="evenodd" d="M1.32422 23.6533H28.6771V6.34692H1.32422V23.6533Z" fill="#1B3771"/>
<path fill-rule="evenodd" clip-rule="evenodd" d="M15.0227 20.5293C16.3425 21.7322 18.1172 22.4653 20.0387 22.4653C24.1746 22.4653 27.5185 19.1212 27.5185 14.9852C27.5185 10.864 24.1748 7.50537 20.0387 7.50537C18.1172 7.50537 16.3426 8.23874 15.0227 9.44135C13.5119 10.8198 12.5586 12.7852 12.5586 14.9852C12.5586 17.1856 13.5119 19.1654 15.0227 20.5293Z" fill="#E9B040"/>
<path fill-rule="evenodd" clip-rule="evenodd" d="M26.5195 19.1507C26.5195 19.0187 26.622 18.916 26.7689 18.916C26.9009 18.916 27.0036 19.0187 27.0036 19.1507C27.0036 19.2827 26.9009 19.4001 26.7689 19.4001C26.7361 19.4003 26.7035 19.3941 26.6731 19.3816C26.6428 19.3692 26.6152 19.3508 26.592 19.3276C26.5688 19.3044 26.5504 19.2768 26.538 19.2465C26.5255 19.2161 26.5193 19.1835 26.5195 19.1507ZM26.7689 19.3412C26.8567 19.3412 26.9449 19.2534 26.9449 19.1506C26.9449 19.0477 26.8568 18.9745 26.7689 18.9745C26.6662 18.9745 26.5782 19.0478 26.5782 19.1506C26.5782 19.2533 26.6662 19.3412 26.7689 19.3412ZM26.7248 19.2681H26.6808V19.048H26.7689C26.7835 19.048 26.8129 19.048 26.8275 19.0626C26.8422 19.0776 26.8568 19.092 26.8568 19.1067C26.8568 19.1361 26.8422 19.1653 26.8131 19.1653L26.8568 19.2681H26.7981L26.7689 19.18H26.7248V19.2681ZM26.7248 19.1361H26.7835C26.7981 19.1361 26.7981 19.1211 26.7981 19.1067C26.7981 19.1067 26.7981 19.092 26.7835 19.092H26.7248V19.1361Z" fill="#E9B040"/>
<path fill-rule="evenodd" clip-rule="evenodd" d="M17.4433 14.1933C17.4136 13.9272 17.3695 13.6628 17.3113 13.4014H12.7354C12.7951 13.1338 12.8686 12.8694 12.9555 12.6094H17.0914C17.0015 12.3406 16.8987 12.0763 16.7834 11.8174H13.2634C13.3987 11.5472 13.5455 11.283 13.7034 11.0253H16.3433C16.1794 10.7431 15.9878 10.4778 15.7715 10.2335H14.2753C14.4954 9.95471 14.7594 9.69075 15.0233 9.44158C13.7034 8.23882 11.9432 7.50562 10.0073 7.50562C5.87137 7.50562 2.52734 10.8642 2.52734 14.9853C2.52734 19.1212 5.87137 22.4654 10.0073 22.4654C11.9432 22.4654 13.7032 21.7322 15.0233 20.5294C15.2871 20.2801 15.5514 20.0163 15.7859 19.7375H14.2752C14.0682 19.4858 13.8771 19.2213 13.7032 18.9457H16.3433C16.5072 18.6915 16.6542 18.4269 16.7834 18.1535H13.2634C13.1431 17.8967 13.0402 17.6321 12.9554 17.3616H17.0913C17.1781 17.1015 17.2515 16.8371 17.3113 16.5694C17.37 16.3056 17.4137 16.0413 17.4433 15.7775C17.502 15.2511 17.502 14.7198 17.4433 14.1933Z" fill="#CC2131"/>
<path fill-rule="evenodd" clip-rule="evenodd" d="M26.5195 16.7161C26.5195 16.5842 26.6219 16.4814 26.7688 16.4814C26.9008 16.4814 27.0035 16.5842 27.0035 16.7161C27.0035 16.8481 26.9008 16.9655 26.7688 16.9655C26.736 16.9658 26.7035 16.9595 26.6731 16.9471C26.6427 16.9347 26.6151 16.9163 26.5919 16.8931C26.5687 16.8699 26.5504 16.8423 26.5379 16.8119C26.5255 16.7815 26.5193 16.749 26.5195 16.7161ZM26.7688 16.9068C26.8566 16.9068 26.9448 16.8187 26.9448 16.7161C26.9448 16.6134 26.8568 16.5401 26.7688 16.5401C26.6661 16.5401 26.5782 16.6134 26.5782 16.7161C26.5782 16.8186 26.6661 16.9068 26.7688 16.9068ZM26.7248 16.8335H26.6808V16.6134H26.7688C26.7835 16.6134 26.8129 16.6134 26.8275 16.6281C26.8421 16.643 26.8568 16.6575 26.8568 16.6721C26.8568 16.7015 26.8421 16.7308 26.813 16.7308L26.8568 16.8335H26.7981L26.7688 16.7454H26.7248V16.8335ZM26.7248 16.7017H26.7835C26.7981 16.7017 26.7981 16.6867 26.7981 16.6723C26.7981 16.6723 26.7981 16.6576 26.7835 16.6576H26.7248V16.7017Z" fill="white"/>
<path fill-rule="evenodd" clip-rule="evenodd" d="M12.4863 17.1414C12.2369 17.2147 12.0609 17.2441 11.8703 17.2441C11.489 17.2441 11.2543 17.0094 11.2543 16.5692C11.2543 16.4815 11.2689 16.3932 11.2835 16.2908L11.3274 15.9974L11.3715 15.7478L11.7235 13.636H12.5008L12.4128 14.1052H12.8969L12.7795 14.8826H12.2956L12.0756 16.1439C12.0756 16.1879 12.0609 16.2317 12.0609 16.2612C12.0609 16.4226 12.1489 16.4959 12.3397 16.4959C12.4424 16.4959 12.5011 16.4813 12.589 16.4665L12.4863 17.1414ZM14.9942 17.1118C14.724 17.1986 14.442 17.2432 14.1581 17.2441C13.2928 17.2441 12.7795 16.7747 12.7795 15.8653C12.7795 14.8095 13.3809 14.0174 14.2022 14.0174C14.8622 14.0174 15.2874 14.4574 15.2874 15.1467C15.2874 15.3668 15.2582 15.5869 15.185 15.9093H13.5715V15.9974C13.5715 16.364 13.8062 16.54 14.2755 16.54C14.5689 16.54 14.8328 16.4813 15.1262 16.3493L14.9942 17.1118ZM14.5102 15.2785V15.1321C14.5102 14.8828 14.3636 14.7361 14.1289 14.7361C13.8649 14.7361 13.6889 14.9268 13.6156 15.2787H14.5102V15.2785ZM6.28228 17.1854H5.47561L5.94501 14.2667L4.90364 17.1854H4.34646L4.28779 14.2814L3.78897 17.1854H3.01172L3.64236 13.3866H4.80092L4.84512 15.7333L5.62237 13.3866H6.91307L6.28228 17.1854ZM8.23303 15.8066C8.1451 15.8066 8.13031 15.792 8.07163 15.792C7.61702 15.792 7.38232 15.968 7.38232 16.2614C7.38232 16.4665 7.49951 16.5842 7.67554 16.5842C8.07163 16.5842 8.21824 16.2612 8.23303 15.8066ZM8.8783 17.1854H8.17436L8.18898 16.8626C8.01296 17.1119 7.77826 17.2441 7.33827 17.2441C6.94233 17.2441 6.6197 16.892 6.6197 16.3932C6.6197 16.2468 6.64896 16.1148 6.67822 15.9974C6.8102 15.5132 7.29423 15.2199 8.02759 15.2052C8.11552 15.2052 8.26229 15.2052 8.37949 15.2199C8.40874 15.1175 8.40874 15.0734 8.40874 15.0147C8.40874 14.8095 8.2475 14.7508 7.86619 14.7508C7.63149 14.7508 7.38232 14.7948 7.19151 14.8387L7.08894 14.8828H7.03027L7.14762 14.1934C7.52893 14.0761 7.79289 14.032 8.08626 14.032C8.79021 14.032 9.15689 14.3401 9.15689 14.9414C9.15689 15.0879 9.17152 15.2052 9.11285 15.5427L8.95161 16.6427L8.92235 16.8333L8.89309 16.9944V17.0972L8.8783 17.1854ZM18.8956 14.1348C19.1153 14.1348 19.3208 14.1933 19.6141 14.3401L19.7461 13.504C19.6728 13.4747 19.658 13.4747 19.5555 13.4307L19.218 13.3574C19.1153 13.3281 18.998 13.3135 18.8515 13.3135C18.4554 13.3135 18.2207 13.3135 17.9715 13.4747C17.8396 13.548 17.6782 13.6654 17.4877 13.8708L17.3996 13.8414L16.5637 14.4281L16.6077 14.1055H15.7422L15.2583 17.1856H16.0652L16.3585 15.5283C16.3585 15.5283 16.4759 15.2936 16.5346 15.2202C16.681 15.0295 16.813 15.0295 16.9744 15.0295H17.0331C17.0184 15.2055 17.0036 15.411 17.0036 15.6163C17.0036 16.6282 17.5758 17.259 18.4557 17.259C18.6758 17.259 18.8665 17.2296 19.1597 17.1417L19.3061 16.2762C19.0423 16.4085 18.8223 16.4668 18.617 16.4668C18.1476 16.4668 17.8688 16.1297 17.8688 15.543C17.8688 14.7214 18.2794 14.1348 18.8956 14.1348ZM25.7445 13.3866L25.5685 14.472C25.3778 14.1787 25.1433 14.0467 24.8353 14.0467C24.4101 14.0467 24.014 14.2814 23.7647 14.736L23.2512 14.428L23.2953 14.1054H22.4298L21.9313 17.1854H22.7526L23.0164 15.5282C23.0164 15.5282 23.2218 15.2935 23.2805 15.22C23.3978 15.0736 23.5298 15.0294 23.6325 15.0294C23.5351 15.3227 23.4856 15.6298 23.4858 15.9389C23.4858 16.7162 23.8965 17.2293 24.4831 17.2293C24.7765 17.2293 25.0112 17.1269 25.2312 16.8776L25.1872 17.1856H25.9644L26.5806 13.3868H25.7445V13.3866ZM24.7621 16.4519C24.4834 16.4519 24.3514 16.2612 24.3514 15.8507C24.3514 15.2494 24.6008 14.8095 24.9819 14.8095C25.2607 14.8095 25.4074 15.0294 25.4074 15.4255C25.4074 16.0267 25.1433 16.4519 24.7621 16.4519ZM21.022 15.8066C20.9343 15.8066 20.9196 15.792 20.861 15.792C20.4062 15.792 20.1715 15.968 20.1715 16.2614C20.1715 16.4665 20.2888 16.5842 20.4649 16.5842C20.8608 16.5842 21.0074 16.2612 21.022 15.8066ZM21.6673 17.1854H20.9637L20.9783 16.8626C20.8023 17.1119 20.5676 17.2441 20.1274 17.2441C19.7317 17.2441 19.3796 16.9067 19.3796 16.3932C19.3942 15.66 19.9368 15.2052 20.8168 15.2052C20.9048 15.2052 21.0515 15.2052 21.1688 15.2199C21.1982 15.1175 21.1982 15.0734 21.1982 15.0147C21.1982 14.8095 21.0368 14.7508 20.6554 14.7508C20.4207 14.7508 20.1569 14.7948 19.9808 14.8387L19.8635 14.8828H19.8194L19.9368 14.1934C20.3182 14.0761 20.5821 14.032 20.8754 14.032C21.5794 14.032 21.9461 14.3401 21.9461 14.9414C21.9461 15.0879 21.9607 15.2052 21.902 15.5427L21.7409 16.6427L21.7115 16.8333L21.6822 16.9944L21.6673 17.0972V17.1854ZM10.5649 14.7654C10.7263 14.7654 10.9463 14.78 11.181 14.8095L11.2983 14.0907C11.0636 14.0615 10.7558 14.032 10.5651 14.032C9.67034 14.032 9.36249 14.5161 9.36249 15.088C9.36249 15.4546 9.53836 15.7333 9.96371 15.924C10.301 16.0854 10.3597 16.1149 10.3597 16.2468C10.3597 16.4374 10.1836 16.5548 9.86099 16.5548C9.62645 16.5548 9.40638 16.5107 9.14226 16.4374L9.05433 17.1414H9.06911L9.21572 17.1708C9.25961 17.1854 9.33307 17.2 9.42101 17.2C9.62629 17.2293 9.78753 17.2293 9.89025 17.2293C10.785 17.2293 11.1663 16.8922 11.1663 16.2027C11.1663 15.7775 10.961 15.5282 10.5503 15.3522C10.213 15.1908 10.169 15.1761 10.169 15.0294C10.169 14.8828 10.3156 14.7654 10.5649 14.7654Z" fill="#1B3771"/>
<path fill-rule="evenodd" clip-rule="evenodd" d="M19.9658 13.2694L19.8336 14.0907C19.5402 13.9441 19.335 13.8854 19.115 13.8854C18.4991 13.8854 18.0739 14.4721 18.0739 15.3081C18.0739 15.8802 18.3673 16.232 18.8362 16.232C19.0417 16.232 19.2617 16.1736 19.5257 16.0413L19.3792 16.9068C19.0859 16.9801 18.8954 17.0095 18.6607 17.0095C17.7952 17.0095 17.2526 16.3934 17.2526 15.3814C17.2526 14.0174 18.0005 13.0789 19.0711 13.0789C19.2179 13.0789 19.3352 13.0935 19.4379 13.1081L19.775 13.1961C19.8778 13.2399 19.8924 13.2399 19.9658 13.2694ZM17.37 13.8413C17.3406 13.8267 17.3113 13.8267 17.2819 13.8267C17.0181 13.8267 16.8712 13.9587 16.622 14.3254L16.6953 13.856H15.9475L15.4633 16.9507H16.2701C16.5635 15.0587 16.6366 14.7359 17.0327 14.7359H17.0914C17.1647 14.3693 17.2528 14.0907 17.3994 13.8412H17.37V13.8413ZM12.6912 16.9066C12.4712 16.98 12.2953 17.0094 12.1045 17.0094C11.6937 17.0094 11.4592 16.7747 11.4592 16.3345C11.4592 16.2467 11.4738 16.1585 11.4885 16.0561L11.5324 15.7479L11.5764 15.5132L11.9284 13.4013H12.7351L12.6472 13.856H13.0579L12.9406 14.6186H12.53L12.3099 15.8947C12.3099 15.9534 12.2953 15.9974 12.2953 16.0267C12.2953 16.1881 12.3832 16.2614 12.574 16.2614C12.6768 16.2614 12.7354 16.2467 12.7941 16.232L12.6912 16.9066ZM9.56728 14.8387C9.56728 15.2198 9.75794 15.4986 10.1833 15.6892C10.5206 15.8506 10.5646 15.8947 10.5646 16.0413C10.5646 16.232 10.418 16.32 10.0952 16.32C9.8605 16.32 9.64059 16.276 9.37647 16.1881L9.25912 16.9066H9.30317L9.44993 16.9361C9.51646 16.9563 9.5857 16.9661 9.65522 16.9653C9.84587 16.98 10.0073 16.9946 10.1098 16.9946C10.9605 16.9946 11.3565 16.6721 11.3565 15.968C11.3565 15.5428 11.1952 15.2934 10.7845 15.1025C10.4471 14.956 10.4032 14.912 10.4032 14.78C10.4032 14.604 10.5352 14.516 10.7991 14.516C10.9605 14.516 11.1805 14.5453 11.3857 14.5747L11.5031 13.856C11.2978 13.8267 10.975 13.7973 10.7845 13.7973C9.87529 13.7973 9.56728 14.2667 9.56728 14.8387ZM26.1698 16.9507H25.3926L25.4363 16.6427C25.2163 16.8774 24.9816 16.9798 24.6882 16.9798C24.1017 16.9798 23.7058 16.4813 23.7058 15.704C23.7058 14.6773 24.307 13.8119 25.0256 13.8119C25.3484 13.8119 25.5831 13.9439 25.8028 14.2373L25.9789 13.1519H26.7857L26.1698 16.9507ZM24.9669 16.2172C25.3484 16.2172 25.6122 15.792 25.6122 15.1761C25.6122 14.7946 25.4657 14.5747 25.187 14.5747C24.8205 14.5747 24.5562 14.9999 24.5562 15.6159C24.5562 16.012 24.6882 16.2172 24.9669 16.2172ZM15.1697 16.8774C14.8912 16.9652 14.6272 17.0094 14.3338 17.0094C13.4244 17.0094 12.9552 16.5252 12.9552 15.6306C12.9552 14.5601 13.5566 13.7827 14.3779 13.7827C15.0379 13.7827 15.4631 14.2227 15.4631 14.912C15.4631 15.1321 15.4339 15.3521 15.3753 15.6746H13.762C13.7472 15.7187 13.7472 15.7333 13.7472 15.7627C13.7472 16.1148 13.9819 16.3053 14.466 16.3053C14.7447 16.3053 15.0087 16.2466 15.302 16.1146L15.1697 16.8774ZM14.7153 15.0438V14.8826C14.7153 14.6332 14.5831 14.4866 14.334 14.4866C14.0848 14.4866 13.894 14.6919 13.8207 15.0438H14.7153ZM6.48739 16.9507H5.68072L6.14997 14.032L5.1086 16.9507H4.55142L4.49274 14.0466L3.99408 16.9507H3.24609L3.87673 13.1519H5.03529L5.07934 15.4986L5.85675 13.1519H7.11803L6.48739 16.9507ZM8.49666 15.5719C8.40857 15.5573 8.36468 15.5573 8.306 15.5573C7.85139 15.5573 7.61669 15.7187 7.61669 16.0267C7.61669 16.2173 7.73388 16.3495 7.90991 16.3495C8.24733 16.3495 8.48203 16.0267 8.49666 15.5719ZM9.08325 16.9507H8.40857L8.42335 16.6279C8.21807 16.8775 7.95395 16.9944 7.57264 16.9944C7.13266 16.9944 6.83928 16.6573 6.83928 16.1585C6.83928 15.4106 7.35273 14.9705 8.26196 14.9705C8.34989 14.9705 8.46724 14.9705 8.58459 14.9851C8.61385 14.8972 8.61385 14.8533 8.61385 14.7946C8.61385 14.5893 8.48187 14.5159 8.10056 14.5159C7.86586 14.5159 7.6019 14.5451 7.42588 14.6038L7.30853 14.6331L7.23522 14.6477L7.35257 13.9584C7.76314 13.841 8.0271 13.797 8.32048 13.797C9.02442 13.797 9.3911 14.105 9.3911 14.6917C9.3911 14.8531 9.37632 14.9703 9.31764 15.3078L9.1564 16.4078L9.12714 16.5985L9.11236 16.7596L9.09773 16.8623L9.08325 16.9507ZM21.2858 15.5719C21.198 15.5573 21.1538 15.5573 21.0951 15.5573C20.6404 15.5573 20.4057 15.7187 20.4057 16.0267C20.4057 16.2173 20.523 16.3495 20.6991 16.3495C21.0217 16.3495 21.2712 16.0267 21.2858 15.5719ZM21.8724 16.9507H21.1979L21.2125 16.6279C21.0071 16.8775 20.7286 16.9944 20.3616 16.9944C19.9218 16.9944 19.6138 16.6573 19.6138 16.1585C19.6138 15.4106 20.1419 14.9705 21.0509 14.9705C21.1387 14.9705 21.2564 14.9705 21.3734 14.9851C21.4028 14.8972 21.4028 14.8533 21.4028 14.7946C21.4028 14.5893 21.2709 14.5159 20.8894 14.5159C20.6547 14.5159 20.3909 14.5451 20.2149 14.6038L20.0975 14.6331L20.0242 14.6477L20.1416 13.9584C20.552 13.841 20.8161 13.797 21.1095 13.797C21.8134 13.797 22.1801 14.105 22.1801 14.6917C22.1801 14.8531 22.1655 14.9703 22.1068 15.3078L21.9454 16.4078L21.9161 16.5985L21.8867 16.7596L21.8721 16.8623V16.9507H21.8724ZM24.0432 13.8413C24.0283 13.8267 23.9992 13.8267 23.9696 13.8267C23.7058 13.8267 23.5444 13.9587 23.2951 14.3254L23.3684 13.856H22.6352L22.1364 16.9507H22.9577C23.2364 15.0587 23.3245 14.7359 23.7058 14.7359H23.7645C23.8378 14.3693 23.9405 14.0907 24.0725 13.8412H24.0432V13.8413Z" fill="white"/>
</svg>
