<svg width="72" height="12" viewBox="0 0 72 12" fill="none" xmlns="http://www.w3.org/2000/svg">
<g clip-path="url(#clip0_314_19394)">
<path d="M12.9672 5.3612C12.9601 5.11681 12.8393 4.99112 12.6119 4.98414H11.3898C11.0984 4.99811 10.9492 5.15871 10.9421 5.45197V7.6096C10.9492 7.90985 11.1126 8.06347 11.4324 8.07744H12.5479C12.6616 8.07744 12.7611 8.03554 12.8393 7.95175C12.9174 7.88891 12.9601 7.80511 12.9601 7.70038L12.9672 5.3612ZM9.37891 5.05397C9.38601 4.5163 9.5068 4.10433 9.74839 3.82503C9.86918 3.70632 10.0255 3.60857 10.2174 3.52477C10.4163 3.44098 10.601 3.39909 10.7858 3.39909H13.024C14.0117 3.40607 14.5162 3.93675 14.5304 4.99112V8.23804C14.5233 8.6151 14.3741 8.9363 14.0827 9.20862C13.7985 9.49491 13.4575 9.64154 13.0595 9.64853H10.9421V11.9877H9.37891V5.05397ZM17.3655 7.75624C17.3655 7.84701 17.4081 7.91684 17.4934 7.9727C17.5644 8.03554 17.6639 8.07045 17.7776 8.07045H18.9784C19.2484 8.07045 19.3905 7.96572 19.3976 7.75624V7.31633C19.3976 7.07194 19.2555 6.95324 18.9642 6.95324H17.7705C17.6142 6.95324 17.5076 6.98117 17.4436 7.03005C17.3868 7.08591 17.3584 7.19763 17.3584 7.36521L17.3655 7.75624ZM19.4047 5.3193C19.4118 5.0819 19.2697 4.97017 18.9855 4.97716H15.8307V3.39909H19.3834C20.4208 3.41305 20.9466 3.90882 20.9608 4.8794V8.18916C20.9537 8.60812 20.8187 8.95026 20.57 9.22957C20.3071 9.51586 19.9661 9.65551 19.5468 9.65551H17.401C16.3565 9.64852 15.8236 9.18069 15.8094 8.24502V6.9672C15.8165 5.98964 16.321 5.49387 17.3299 5.47991H19.4118L19.4047 5.3193ZM25.3591 10.4096C25.4799 10.4026 25.5936 10.3608 25.6789 10.277C25.7641 10.2002 25.8068 10.1164 25.8068 10.0256V9.64853H23.803C23.5401 9.64853 23.3341 9.61361 23.1777 9.55077C23.0143 9.49491 22.8509 9.38319 22.6804 9.22259C22.524 9.055 22.4104 8.88044 22.3393 8.69889C22.2682 8.53131 22.2327 8.32183 22.2327 8.06347V3.39909H23.803V7.56771C23.803 7.90287 23.9451 8.07045 24.2222 8.07045H25.3307C25.4657 8.07045 25.5794 8.02856 25.6718 7.94477C25.7641 7.86796 25.8068 7.78417 25.8068 7.67943V3.39909H27.3629V10.2909C27.3558 10.8007 27.2208 11.2126 26.965 11.5199C26.7021 11.8271 26.3468 11.9877 25.892 11.9947H22.2327V10.4096H25.3591ZM28.5921 8.07045H31.3846C31.6404 8.06347 31.7754 7.95873 31.7825 7.7702V7.63055C31.7825 7.58865 31.7683 7.54676 31.7469 7.49788C31.683 7.37918 31.6048 7.31633 31.5196 7.31633H30.1269C29.7148 7.30935 29.3666 7.1697 29.0682 6.89738C28.7698 6.646 28.6205 6.34575 28.6063 5.98265V4.80259C28.6205 3.88089 29.1321 3.41305 30.134 3.39909H33.3741V4.98414H30.6314C30.3116 4.98414 30.1482 5.0819 30.1482 5.27741V5.43103C30.1482 5.63352 30.3116 5.73128 30.6456 5.73128H32.0241C32.3935 5.73826 32.7062 5.87791 32.9691 6.15024C33.232 6.42256 33.367 6.74376 33.3812 7.12082V8.27295C33.3741 8.59415 33.2178 8.92233 32.9265 9.24353C32.7843 9.40413 32.6351 9.50887 32.493 9.57172C32.3438 9.62758 32.1378 9.65551 31.8748 9.65551H28.5992L28.5921 8.07045ZM36.06 7.75624C36.06 7.84701 36.1026 7.91684 36.1879 7.9727C36.2589 8.03554 36.3513 8.07045 36.4721 8.07045H37.68C37.95 8.07045 38.0921 7.96572 38.0992 7.75624V7.31633C38.0992 7.07194 37.9571 6.95324 37.6658 6.95324H36.4721C36.3158 6.95324 36.2092 6.98117 36.1452 7.03005C36.0884 7.08591 36.06 7.19763 36.06 7.36521V7.75624ZM38.0992 5.3193C38.1064 5.0819 37.9642 4.97017 37.6729 4.97716H34.5181V3.39909H38.0708C39.1082 3.41305 39.634 3.90882 39.6482 4.8794V8.18916C39.6411 8.60812 39.5061 8.95026 39.2574 9.22957C38.9945 9.51586 38.6535 9.65551 38.2342 9.65551H36.0813C35.0368 9.64852 34.5039 9.18069 34.4897 8.24502V6.9672C34.4968 5.98964 35.0013 5.49387 36.0102 5.47991H38.0992V5.3193ZM40.9272 2.49833C40.9343 2.07239 41.0978 1.73024 41.4104 1.47189C41.7159 1.21353 42.1138 1.07388 42.6112 1.06689H43.606V2.59609H43.002C42.6681 2.60307 42.5046 2.75669 42.4975 3.06392V3.39909H43.606V4.98414H42.4975V9.65551H40.9272V2.49833ZM48.0611 5.29137V5.25646C48.0611 5.17267 48.0256 5.10284 47.9616 5.05397C47.8906 5.00509 47.7982 4.97716 47.6916 4.97716H46.5974C46.4553 4.97716 46.3416 5.01905 46.2563 5.09586C46.1497 5.16569 46.0929 5.26344 46.0929 5.38215V6.01757L48.0611 5.29137ZM46.1213 7.53279V7.63055C46.1213 7.75624 46.1569 7.86098 46.2208 7.9308C46.2705 8.02158 46.3345 8.07045 46.4269 8.07045H49.6456V9.65551H46.2208C45.9082 9.65551 45.6666 9.62758 45.496 9.57172C45.3113 9.50887 45.1408 9.41112 44.9916 9.27146C44.821 9.10388 44.7002 8.9363 44.6434 8.75475C44.5794 8.5732 44.5439 8.32881 44.5439 8.02856L44.5297 4.85845C44.5439 3.90183 45.0555 3.41305 46.0574 3.39909H48.1748C49.1483 3.41305 49.6456 3.92278 49.6599 4.91431V6.1642L46.1213 7.53279ZM52.9781 9.65551C52.7436 9.65551 52.5234 9.63456 52.3244 9.59266C52.1184 9.55775 51.9123 9.46698 51.7062 9.30638C51.4931 9.12483 51.3439 8.91535 51.2586 8.68492C51.1733 8.46148 51.1307 8.20312 51.1307 7.92382V4.97017C51.1236 4.73277 51.1449 4.5163 51.2017 4.33476C51.2515 4.15321 51.3652 3.97166 51.5357 3.7971C51.7276 3.61555 51.9194 3.48986 52.1255 3.42702C52.3244 3.37814 52.5447 3.35021 52.7934 3.35021H55.195V3.72029H52.8502C52.4381 3.72029 52.1112 3.80408 51.8697 3.97166C51.6281 4.15321 51.5002 4.46743 51.5002 4.91431V7.86796C51.5002 8.07744 51.5357 8.27993 51.5997 8.47545C51.6636 8.66398 51.7773 8.83854 51.9336 8.98518C52.1041 9.11086 52.2747 9.19466 52.4381 9.22259C52.6086 9.2575 52.7934 9.27845 52.9923 9.27845H55.2305V9.64853H52.9781V9.65551ZM61.3768 5.82205H58.2291C57.8525 5.82904 57.554 5.94774 57.3409 6.1642C57.1206 6.38764 57.014 6.69488 57.014 7.08591V8.02856C57.014 8.21011 57.0353 8.37769 57.0709 8.53131C57.1135 8.69191 57.2059 8.83156 57.3622 8.95026C57.6322 9.17371 57.9377 9.27845 58.2646 9.27845H60.1831C60.9789 9.27146 61.3839 8.85949 61.3839 8.03554L61.3768 5.82205ZM61.7534 7.95175C61.7534 8.18916 61.7321 8.39864 61.7036 8.58019C61.6539 8.78268 61.5473 8.97121 61.391 9.15276C61.0641 9.49491 60.652 9.66249 60.1689 9.64853H58.293C57.8027 9.64853 57.4119 9.50887 57.1064 9.22259C56.7938 8.94328 56.6374 8.55225 56.6374 8.04951V7.09987C56.6516 6.02455 57.1988 5.47292 58.2717 5.45197H61.391V5.03302C61.391 4.69087 61.2915 4.39062 61.0855 4.13226C60.9576 3.96468 60.8084 3.85296 60.6378 3.7971C60.4673 3.7552 60.2683 3.72727 60.0552 3.72727H56.6516V3.35719H59.8775C60.176 3.35719 60.4389 3.37814 60.6805 3.42003C60.8012 3.44098 60.9149 3.48986 61.0215 3.55969C61.1352 3.62253 61.2347 3.72029 61.327 3.84597C61.6184 4.21605 61.7605 4.63501 61.7534 5.10983V7.95175ZM65.2777 3.72727C64.4037 3.74123 63.9703 4.20907 63.9916 5.13077V9.64853H63.615V5.13776C63.5937 3.95071 64.1692 3.35719 65.3416 3.35719H65.7609V3.72727H65.2777ZM71.6229 3.72727H68.6528C68.4396 3.72727 68.2478 3.74822 68.0773 3.7971C67.8996 3.83899 67.722 3.94373 67.5586 4.1183C67.4022 4.2789 67.3028 4.4395 67.2601 4.59311C67.2033 4.75371 67.182 4.94224 67.1891 5.16569V8.04951C67.1891 8.53131 67.3312 8.85251 67.6154 9.02707C67.7575 9.11086 67.9138 9.16673 68.0844 9.20862C68.2549 9.25052 68.4538 9.27845 68.6599 9.27845H69.9602C70.4434 9.27845 70.8413 9.16673 71.1468 8.95026C71.4524 8.74079 71.6087 8.38467 71.6229 7.87494V3.72727ZM71.9995 7.90287C71.9639 9.0969 71.3245 9.68344 70.0739 9.65551H68.6812C68.3899 9.65551 68.127 9.62758 67.8925 9.58568C67.6509 9.52284 67.4235 9.38319 67.2033 9.15974C67.0399 8.95725 66.9333 8.75475 66.8906 8.54527C66.8338 8.33579 66.8054 8.10537 66.8196 7.85399V5.16569C66.8338 3.9577 67.4591 3.35021 68.6812 3.36417H71.63V1.31827H72.0066V7.90287" fill="#008AC9"/>
<path d="M0.675401 3.16151C0.796194 3.10565 0.924093 3.06376 1.04489 3.04281C1.27226 1.98145 2.2315 1.18543 3.37548 1.18543C4.52657 1.18543 5.47871 1.98145 5.70608 3.04281C6.06136 3.10565 6.35268 3.2453 6.57295 3.45478C6.58006 3.25229 6.57295 3.05677 6.55163 2.86824C6.40952 1.26224 5.03817 0.00537109 3.36838 0.00537109C1.64885 0.00537109 0.249072 1.34603 0.178017 3.01488C0.170912 3.16151 0.163806 3.30815 0.170912 3.46875C0.313022 3.35004 0.476448 3.2453 0.675401 3.16151Z" fill="#E3001B"/>
<path d="M5.23675 3.39893H1.40689C1.22215 3.39893 1.0303 3.44082 0.838449 3.52461C0.6466 3.6084 0.490279 3.70616 0.369486 3.82487C0.135004 4.10417 0.0071055 4.51615 0 5.05381V7.99349C0.0071055 8.53115 0.127899 8.94313 0.369486 9.22243C0.497385 9.34113 0.6466 9.43889 0.838449 9.52268C1.0374 9.60647 1.22925 9.64837 1.40689 9.64837H5.23675C6.22442 9.64139 6.72891 9.10372 6.74312 8.04935V4.99096C6.72891 3.93659 6.22442 3.40591 5.23675 3.39893Z" fill="#E3001B"/>
</g>
<defs>
<clipPath id="clip0_314_19394">
<rect width="72" height="12" fill="white"/>
</clipPath>
</defs>
</svg>
