<svg width="30" height="30" viewBox="0 0 30 30" fill="none" xmlns="http://www.w3.org/2000/svg">
<path fill-rule="evenodd" clip-rule="evenodd" d="M0 0H30V30H0V0Z" fill="white"/>
<path fill-rule="evenodd" clip-rule="evenodd" d="M29.5592 7.90781C29.5592 6.50926 28.8324 5.81543 27.4225 5.81543H2.57799C1.87327 5.81543 1.35562 6.00266 1.01415 6.38802C0.628793 6.77353 0.441406 7.26908 0.441406 7.90781V22.0922C0.441406 22.731 0.628793 23.2155 1.01415 23.6119C1.41071 23.9974 1.91731 24.1846 2.57799 24.1846H27.4225C28.8324 24.1846 29.5592 23.4801 29.5592 22.0924V7.90781ZM27.4225 6.14585C28.5898 6.14585 29.1846 6.74053 29.1846 7.90781V22.0922C29.1846 23.2704 28.5898 23.8541 27.4225 23.8541H2.57799C2.0163 23.8541 1.5869 23.6889 1.26753 23.3585C0.937111 23.039 0.77198 22.5985 0.77198 22.0921V7.90781C0.77198 6.74053 1.35562 6.14585 2.57799 6.14585H27.4225Z" fill="#315881"/>
<path fill-rule="evenodd" clip-rule="evenodd" d="M2.77408 6.96069C2.30064 6.96069 2.00321 7.03773 1.83808 7.20302C1.6949 7.39025 1.62891 7.69857 1.62891 8.15007V11.2225H28.3677V8.15007C28.3677 7.34621 27.9709 6.96069 27.1781 6.96069H2.77408Z" fill="#315881"/>
<path fill-rule="evenodd" clip-rule="evenodd" d="M1.62891 21.8058C1.62891 22.6204 2.01426 23.0391 2.77408 23.0391H27.1781C27.9709 23.0391 28.3677 22.6206 28.3677 21.8058V18.7332H1.62891V21.8058Z" fill="#DFA43B"/>
<path fill-rule="evenodd" clip-rule="evenodd" d="M10.4864 12.5332C10.4864 12.6764 10.4643 12.7864 10.4093 12.8636L8.48207 16.2226L8.36083 12.1257H5.27734L6.31249 12.6213C6.60976 12.8085 6.76399 13.0507 6.76399 13.3592L7.05021 17.7094H8.55896L12.1713 12.1257H10.3212C10.4313 12.2249 10.4864 12.379 10.4864 12.5332ZM22.9529 12.2909L23.0739 12.1256H21.1906C21.2566 12.1916 21.2787 12.2247 21.2787 12.2467C21.2565 12.3346 21.2124 12.3898 21.1906 12.4558L18.4485 17.4556C18.3825 17.5436 18.3162 17.6208 18.2393 17.7091H19.7921L19.7149 17.5438C19.7149 17.4006 19.7921 17.1365 19.9572 16.762L20.2876 16.1452H21.8845C21.9508 16.6629 21.9948 17.0925 22.0168 17.412L21.8845 17.7092H23.8117L23.5254 17.2907L22.9529 12.2909ZM21.8074 15.3635H20.6621L21.6421 13.4802L21.8074 15.3635ZM17.0499 11.8394C16.4554 11.8394 15.9486 12.0046 15.4971 12.3349C15.0014 12.6213 14.7592 12.9847 14.7592 13.4364C14.7592 13.954 14.9354 14.4055 15.2878 14.7468L16.3562 15.4846C16.7417 15.76 16.929 16.0022 16.929 16.2226C16.929 16.4318 16.8295 16.619 16.6426 16.7622C16.4554 16.9054 16.2459 16.9714 15.9818 16.9714C15.5963 16.9714 14.9356 16.6962 14.0215 16.1896V17.2137C14.7373 17.6433 15.4313 17.8636 16.1029 17.8636C16.7417 17.8636 17.2813 17.6873 17.7441 17.2909C18.2396 16.9273 18.4818 16.4981 18.4818 16.0245C18.4818 15.6277 18.3054 15.2645 17.909 14.879L16.8846 14.1411C16.5436 13.8658 16.3562 13.6234 16.3562 13.4364C16.3562 13.007 16.6095 12.7866 17.1271 12.7866C17.4795 12.7866 17.9971 12.9849 18.6908 13.4034L18.9003 12.3351C18.3163 12.0045 17.7107 11.8394 17.0499 11.8394ZM12.9532 17.7092C12.9311 17.478 12.8871 17.2688 12.865 17.0484L14.2637 12.5332L14.5941 12.1257H12.5788C12.6009 12.2249 12.6228 12.357 12.6449 12.4561C12.6449 12.5553 12.6449 12.6765 12.6228 12.7866L11.2242 17.2577L10.9379 17.7094H12.9532V17.7092Z" fill="#315881"/>
</svg>
